<svg width="244" height="45" viewBox="0 0 244 45" fill="none" xmlns="http://www.w3.org/2000/svg">
<path d="M243.9 17.9364H241.981V19.8428H243.9V17.9364Z" fill="#096E40"/>
<path d="M243.9 39.9554H241.981V41.8618H243.9V39.9554Z" fill="#096E40"/>
<path d="M60.6934 28.8089C59.8174 28.1038 58.388 27.7512 56.4053 27.7512H50.3783V28.1255C50.8237 28.092 51.2713 28.1513 51.6923 28.2996C51.8848 28.4022 52.0385 28.5641 52.1303 28.761C52.2559 29.22 52.3033 29.6966 52.2705 30.1712V39.1198C52.3036 39.5915 52.2562 40.0653 52.1303 40.5213C52.0262 40.7228 51.8585 40.8849 51.6529 40.9827C51.2321 41.132 50.7846 41.1928 50.3389 41.1611V41.5354H57.3864V41.1611C56.941 41.1945 56.4935 41.1352 56.0724 40.987C55.8795 40.885 55.7257 40.7229 55.6344 40.5257C55.5087 40.0682 55.4613 39.5929 55.4942 39.1198V35.294C56.6182 35.3309 57.7428 35.2492 58.8494 35.0503C59.7408 34.8716 60.5513 34.4141 61.1621 33.7445C61.7225 33.1104 62.0227 32.2902 62.0031 31.4464C62.0066 30.9358 61.8901 30.4314 61.6627 29.9735C61.4353 29.5155 61.1034 29.1167 60.6934 28.8089ZM57.9208 33.7837C57.6729 34.0374 57.3727 34.2349 57.0408 34.3626C56.7089 34.4903 56.3532 34.5452 55.998 34.5236C55.8797 34.5236 55.7089 34.5236 55.4855 34.5236V28.5434H55.9235C56.2906 28.5148 56.6597 28.5631 57.0068 28.6853C57.3539 28.8076 57.6713 29.0009 57.9383 29.2528C58.3763 29.7272 58.6129 30.4802 58.6129 31.503C58.6129 32.5259 58.372 33.2919 57.9208 33.7837Z" fill="#096E40"/>
<path d="M72.6028 28.1255C73.0532 28.1012 73.5032 28.1817 73.9168 28.3606C74.1371 28.4842 74.3097 28.6771 74.4074 28.909C74.5631 29.326 74.6302 29.7706 74.6045 30.2147V35.8555C74.6045 37.3063 74.4731 38.332 74.2103 38.9327C73.9635 39.5032 73.55 39.9869 73.0233 40.3211C72.4461 40.6696 71.7799 40.8449 71.1048 40.826C70.535 40.8487 69.9703 40.7114 69.4754 40.4299C69.075 40.1957 68.7534 39.8488 68.5512 39.4332C68.3614 39.0328 68.268 38.216 68.2709 36.9828V30.2321C68.2377 29.7367 68.2805 29.2392 68.3979 28.7566C68.4851 28.5567 68.6401 28.3934 68.8359 28.2953C69.1874 28.1552 69.5665 28.0971 69.9441 28.1255H70.3032V27.7512H63.1199V28.1255C63.5288 28.091 63.9403 28.1475 64.3244 28.2909C64.5273 28.388 64.691 28.5507 64.7887 28.7523C64.9093 29.2358 64.9536 29.7351 64.9201 30.2321V36.9958C64.8763 37.9381 65.0658 38.8766 65.472 39.7292C65.9083 40.4706 66.5711 41.0545 67.3642 41.3961C68.2456 41.7587 69.1971 41.9222 70.1499 41.8749C71.3538 41.941 72.5476 41.6239 73.5576 40.9696C74.2869 40.5006 74.8386 39.8039 75.1257 38.9892C75.3863 37.8388 75.4953 36.6595 75.4498 35.4812V30.2582C75.4278 29.8634 75.4722 29.4677 75.5812 29.0874C75.6826 28.7961 75.8822 28.5485 76.1463 28.3867C76.4423 28.2206 76.7789 28.1392 77.1187 28.1516H77.4034V27.7773H72.5853L72.6028 28.1255Z" fill="#096E40"/>
<path d="M89.8561 35.3331C89.3276 34.9007 88.4034 34.5322 87.0835 34.2275C88.3056 33.9229 89.1553 33.5094 89.6415 32.9914C90.109 32.5173 90.3702 31.8795 90.3686 31.2156C90.3649 30.5766 90.1647 29.9539 89.7948 29.4311C89.4085 28.869 88.8649 28.4317 88.2311 28.1733C87.5712 27.8831 86.4455 27.738 84.8541 27.738H78.2007V28.1123C78.6461 28.0796 79.0935 28.1388 79.5147 28.2864C79.7252 28.3804 79.8968 28.5432 80.0009 28.7478C80.1242 29.2072 80.1701 29.6837 80.1367 30.158V39.1197C80.1704 39.5911 80.1245 40.0648 80.0009 40.5212C79.8949 40.7228 79.7258 40.8847 79.5191 40.9825C79.0985 41.1328 78.6508 41.1935 78.2051 41.161V41.5353H85.257C87.2193 41.5353 88.7173 41.1262 89.751 40.3079C90.1477 40.0061 90.468 39.6164 90.6863 39.1698C90.9045 38.7232 91.0147 38.232 91.0081 37.7356C91.0189 37.2735 90.9202 36.8153 90.7201 36.398C90.52 35.9807 90.2241 35.6159 89.8561 35.3331ZM83.3604 28.5215C84.0958 28.4759 84.8329 28.5765 85.5286 28.8174C85.9545 28.9978 86.3161 29.3011 86.5667 29.6879C86.8069 30.1533 86.9322 30.6687 86.9322 31.1917C86.9322 31.7147 86.8069 32.2301 86.5667 32.6955C86.3105 33.0962 85.9421 33.4139 85.5067 33.6095C84.8233 33.8649 84.0938 33.9761 83.3648 33.9359L83.3604 28.5215ZM87.031 39.3765C86.7945 39.8246 86.4263 40.1905 85.9754 40.4254C85.509 40.667 84.9901 40.7911 84.4642 40.7867C84.313 40.8058 84.1593 40.7903 84.015 40.7413C83.8707 40.6923 83.7396 40.6111 83.6318 40.504C83.524 40.3968 83.4423 40.2666 83.3929 40.1232C83.3436 39.9798 83.328 39.8271 83.3473 39.6768V39.1676V34.7455C84.1429 34.7031 84.9396 34.8034 85.6994 35.0414C86.2321 35.2453 86.6755 35.629 86.9521 36.1252C87.2518 36.6563 87.4031 37.2574 87.3901 37.8662C87.3968 38.3913 87.2734 38.9099 87.031 39.3765Z" fill="#096E40"/>
<path d="M104.481 38.7716L99.475 27.4552H99.2823L94.3197 38.4669C94.0269 39.2136 93.6271 39.9143 93.1327 40.5474C92.8052 40.886 92.3708 41.1026 91.9019 41.1611V41.5354H96.5185V41.1611C96.0534 41.1609 95.5921 41.0784 95.1563 40.9173C95.0032 40.8312 94.8779 40.7037 94.7949 40.5496C94.712 40.3955 94.6747 40.2211 94.6876 40.0468C94.711 39.6623 94.8076 39.2857 94.9723 38.937L95.5549 37.5964H100.456L101.196 39.3374C101.385 39.7726 101.49 40.0381 101.503 40.0991C101.542 40.2201 101.563 40.3463 101.564 40.4734C101.569 40.5645 101.551 40.6554 101.511 40.7376C101.472 40.8198 101.411 40.8906 101.337 40.9434C100.987 41.1209 100.594 41.1978 100.202 41.1654H99.9262V41.5397H106.637V41.1654C106.278 41.1545 105.933 41.026 105.655 40.7998C105.151 40.1948 104.754 39.5089 104.481 38.7716ZM95.9315 36.8608L98.0603 32.1123L100.128 36.8608H95.9315Z" fill="#096E40"/>
<path d="M118.668 39.1724C118.358 39.6826 117.919 40.1028 117.394 40.3911C116.82 40.6665 116.187 40.7994 115.55 40.7785H114.393C113.98 40.801 113.564 40.7702 113.158 40.6871C113.052 40.6516 112.954 40.5946 112.871 40.5197C112.789 40.4448 112.722 40.3536 112.677 40.2519C112.566 39.811 112.525 39.3559 112.554 38.9026V30.1106C112.523 29.6724 112.56 29.232 112.663 28.8049C112.75 28.5983 112.905 28.4267 113.101 28.3174C113.401 28.162 113.736 28.0883 114.074 28.1042H114.678V27.7299H107.263V28.1042H107.701C108.021 28.0876 108.34 28.1568 108.625 28.3044C108.824 28.405 108.985 28.5668 109.085 28.7657C109.184 29.1936 109.221 29.6333 109.194 30.0715V39.1724C109.223 39.602 109.186 40.0335 109.085 40.4521C109.008 40.657 108.863 40.8293 108.673 40.9395C108.374 41.095 108.038 41.1686 107.701 41.1528H107.263V41.5271H119.584L120.105 36.6872H119.667C119.448 37.5564 119.112 38.3924 118.668 39.1724Z" fill="#096E40"/>
<path d="M121.27 28.1259H121.708C122.03 28.1101 122.351 28.1792 122.637 28.3261C122.828 28.4309 122.981 28.5922 123.075 28.7875C123.174 29.2153 123.211 29.655 123.185 30.0932V39.1724C123.213 39.602 123.176 40.0335 123.075 40.4521C123 40.6579 122.854 40.8307 122.663 40.9395C122.364 41.095 122.028 41.1686 121.691 41.1528H121.253V41.5271H128.506V41.1528H128.046C127.727 41.1678 127.408 41.1003 127.122 40.9569C126.924 40.8535 126.763 40.6906 126.662 40.4912C126.556 40.0646 126.516 39.6242 126.544 39.1855V30.1106C126.511 29.6721 126.549 29.2312 126.658 28.8049C126.737 28.6004 126.884 28.4286 127.074 28.3174C127.373 28.162 127.709 28.0883 128.046 28.1042H128.506V27.7299H121.27V28.1259Z" fill="#096E40"/>
<path d="M146.342 35.3331C145.506 34.7748 144.562 34.3981 143.569 34.2275C144.787 33.9374 145.64 33.5253 146.127 32.9914C146.592 32.5158 146.851 31.8786 146.85 31.2156C146.848 30.577 146.649 29.9543 146.281 29.4311C145.892 28.8694 145.347 28.4323 144.713 28.1733C144.053 27.8831 142.927 27.738 141.336 27.738H134.687V28.1123C135.132 28.0784 135.58 28.1377 136.001 28.2864C136.211 28.3804 136.383 28.5432 136.487 28.7478C136.612 29.2068 136.66 29.6835 136.627 30.158V39.1197C136.66 39.5914 136.613 40.0652 136.487 40.5212C136.383 40.7227 136.215 40.8848 136.009 40.9825C135.588 41.1319 135.141 41.1926 134.695 41.161V41.5353H141.743C143.711 41.5353 145.209 41.1262 146.237 40.3079C146.634 40.0068 146.955 39.6172 147.174 39.1705C147.392 38.7237 147.502 38.2322 147.494 37.7356C147.504 37.2735 147.406 36.8155 147.206 36.3982C147.005 35.9809 146.71 35.6161 146.342 35.3331ZM139.842 28.5215C140.577 28.4752 141.314 28.5758 142.01 28.8174C142.436 28.9989 142.799 29.3018 143.052 29.6879C143.309 30.146 143.434 30.6657 143.412 31.1895C143.435 31.716 143.307 32.2381 143.044 32.6955C142.789 33.0959 142.422 33.4136 141.988 33.6095C141.303 33.8655 140.572 33.9767 139.842 33.9359V28.5215ZM143.517 39.3765C143.279 39.8249 142.909 40.1907 142.457 40.4254C141.992 40.6666 141.475 40.7907 140.95 40.7867C140.799 40.7978 140.647 40.7785 140.503 40.7299C140.359 40.6812 140.227 40.6044 140.113 40.5038C140.013 40.3919 139.936 40.2609 139.888 40.1188C139.84 39.9767 139.821 39.8263 139.833 39.6768V39.1676V34.7455C140.63 34.7032 141.428 34.8034 142.19 35.0414C142.719 35.2464 143.16 35.6301 143.434 36.1252C143.735 36.6555 143.887 37.2572 143.872 37.8662C143.88 38.3909 143.758 38.9096 143.517 39.3765Z" fill="#096E40"/>
<path d="M160.962 38.7716L155.96 27.4552H155.763L150.801 38.4669C150.51 39.2144 150.11 39.9154 149.614 40.5474C149.288 40.8859 148.855 41.1027 148.387 41.1611V41.5354H152.999V41.1611C152.536 41.1611 152.076 41.0785 151.642 40.9173C151.487 40.8322 151.361 40.705 151.277 40.5508C151.193 40.3965 151.156 40.2217 151.169 40.0468C151.192 39.6618 151.29 39.2848 151.458 38.937L152.04 37.5964H156.942L157.677 39.3374C157.792 39.586 157.895 39.8402 157.984 40.0991C158.025 40.2196 158.046 40.3461 158.045 40.4734C158.05 40.564 158.032 40.6543 157.993 40.7364C157.954 40.8184 157.895 40.8896 157.822 40.9434C157.472 41.1209 157.079 41.1978 156.687 41.1654H156.407V41.5397H163.122V41.1654C162.763 41.1555 162.418 41.0269 162.141 40.7998C161.635 40.1953 161.236 39.5094 160.962 38.7716ZM152.399 36.8608L154.528 32.1123L156.596 36.8608H152.399Z" fill="#096E40"/>
<path d="M173.414 28.1255C173.714 28.0896 174.019 28.1224 174.304 28.2212C174.59 28.32 174.849 28.4823 175.061 28.6957C175.302 28.9873 175.42 29.5444 175.42 30.3714V36.2994L168.574 27.7512H163.651V28.1255C163.986 28.1192 164.318 28.186 164.624 28.3214C164.93 28.5055 165.195 28.7499 165.403 29.0395L165.701 29.4052V39.1372C165.763 39.4169 165.752 39.7075 165.671 39.9821C165.589 40.2567 165.439 40.5065 165.235 40.7082C165.031 40.91 164.778 41.0573 164.502 41.1365C164.225 41.2156 163.932 41.2241 163.651 41.1611V41.5354H168.574V41.1611H168.246C167.791 41.1618 167.349 41.0083 166.993 40.7259C166.63 40.4473 166.446 39.912 166.446 39.1198V30.3714L175.828 41.8532H176.178V30.3714C176.153 29.9068 176.21 29.4415 176.345 28.996C176.434 28.7565 176.6 28.553 176.818 28.4171C177.191 28.2499 177.592 28.1512 178 28.1255V27.7512H173.414V28.1255Z" fill="#096E40"/>
<path d="M192.1 39.0985L187.221 33.005L191.281 29.7712C191.882 29.2559 192.52 28.786 193.191 28.3653C193.55 28.2065 193.937 28.1179 194.33 28.1042V27.7299H188.916V28.1042C189.294 28.0929 189.671 28.1414 190.033 28.2478C190.158 28.295 190.267 28.3781 190.345 28.4865C190.423 28.595 190.467 28.7239 190.471 28.8571C190.471 29.201 190.116 29.6623 189.398 30.2412L184.251 34.3848V30.1106C184.219 29.6717 184.26 29.2304 184.374 28.8049C184.461 28.6004 184.615 28.4315 184.812 28.3261C185.148 28.1719 185.516 28.1017 185.885 28.1216V27.7473H178.96V28.1216H179.42C179.742 28.1051 180.063 28.1742 180.349 28.3218C180.54 28.4253 180.694 28.587 180.787 28.7831C180.886 29.211 180.923 29.6507 180.896 30.0889V39.1724C180.925 39.602 180.888 40.0335 180.787 40.4521C180.712 40.6579 180.566 40.8307 180.375 40.9395C180.076 41.095 179.74 41.1686 179.403 41.1528H178.943V41.5271H185.951V41.1528C185.57 41.178 185.189 41.1139 184.838 40.9657C184.639 40.8729 184.474 40.7208 184.365 40.5304C184.253 40.0929 184.211 39.6403 184.243 39.1899V35.4163L184.755 34.981L187.935 38.9548C188.566 39.7426 188.877 40.2606 188.877 40.5652C188.879 40.6391 188.861 40.7122 188.827 40.7777C188.792 40.8432 188.742 40.8989 188.68 40.9395C188.408 41.0776 188.108 41.1506 187.804 41.1528V41.5271H195.026V41.1528C194.621 41.1517 194.223 41.0387 193.879 40.8264C193.198 40.3475 192.597 39.7643 192.1 39.0985Z" fill="#096E40"/>
<path d="M210.896 28.8089C210.02 28.1038 208.601 27.7512 206.612 27.7512H200.563V28.1255C201.009 28.0927 201.456 28.152 201.878 28.2996C202.09 28.3927 202.263 28.5557 202.368 28.761C202.491 29.2204 202.537 29.6969 202.504 30.1712V39.1198C202.538 39.5912 202.492 40.0649 202.368 40.5213C202.262 40.7229 202.093 40.8849 201.886 40.9827C201.466 41.1324 201.018 41.1932 200.572 41.1611V41.5354H207.624V41.1611C207.179 41.1938 206.731 41.1345 206.31 40.987C206.098 40.8945 205.924 40.7314 205.82 40.5257C205.694 40.0682 205.647 39.5929 205.679 39.1198V35.294C206.805 35.3306 207.931 35.2489 209.039 35.0503C209.93 34.8696 210.74 34.4124 211.352 33.7445C211.909 33.1087 212.207 32.2893 212.188 31.4464C212.194 30.9373 212.08 30.4338 211.856 29.976C211.631 29.5182 211.303 29.1185 210.896 28.8089ZM208.124 33.7837C207.876 34.0379 207.576 34.2356 207.244 34.3634C206.912 34.4911 206.556 34.5458 206.201 34.5236C206.087 34.5236 205.916 34.5236 205.688 34.5236V28.5434H206.126C206.493 28.5148 206.862 28.5631 207.209 28.6853C207.557 28.8076 207.874 29.0009 208.141 29.2528C208.579 29.7272 208.82 30.4802 208.82 31.503C208.82 32.5259 208.575 33.2919 208.124 33.7837Z" fill="#096E40"/>
<path d="M224.624 39.1724C224.316 39.6844 223.876 40.1052 223.349 40.3911C222.777 40.6668 222.145 40.7998 221.509 40.7785H220.353C219.938 40.8004 219.521 40.7697 219.113 40.6871C219.008 40.6505 218.911 40.593 218.828 40.5182C218.745 40.4435 218.678 40.3529 218.632 40.2519C218.526 39.8103 218.486 39.3557 218.513 38.9026V30.1106C218.482 29.6724 218.519 29.232 218.623 28.8049C218.708 28.5974 218.863 28.4253 219.061 28.3174C219.36 28.162 219.696 28.0883 220.033 28.1042H220.638V27.7299H213.222V28.1042H213.682C214.003 28.0876 214.322 28.1568 214.606 28.3044C214.798 28.4079 214.951 28.5695 215.044 28.7657C215.146 29.1932 215.184 29.633 215.158 30.0715V39.1724C215.198 39.6096 215.168 40.0501 215.071 40.4782C214.996 40.6828 214.852 40.8552 214.663 40.9657C214.364 41.1211 214.028 41.1947 213.691 41.1789H213.231V41.5532H225.539L226.065 36.7133H225.627C225.406 37.5744 225.069 38.4017 224.624 39.1724Z" fill="#096E40"/>
<path d="M240.085 28.4911C240.012 28.5662 239.924 28.6257 239.827 28.6661C239.73 28.7065 239.625 28.7269 239.52 28.7262C239.106 28.6572 238.703 28.5358 238.32 28.3649C237.333 27.9739 236.282 27.7659 235.219 27.7512C233.911 27.7566 232.625 28.0921 231.483 28.7262C230.318 29.3506 229.347 30.2792 228.675 31.4116C227.997 32.5139 227.638 33.7803 227.637 35.072C227.636 36.2847 227.96 37.4757 228.574 38.5235C229.192 39.5967 230.117 40.4621 231.233 41.0088C232.459 41.605 233.81 41.9034 235.175 41.8793C236.185 41.9001 237.189 41.7196 238.127 41.3483C239.046 40.9329 239.874 40.3413 240.563 39.6073V38.4408C239.928 39.2135 239.156 39.8641 238.285 40.3603C237.537 40.739 236.707 40.9289 235.867 40.913C234.939 40.9547 234.023 40.6866 233.265 40.1513C232.549 39.5752 232.034 38.7893 231.794 37.9055C231.467 36.8363 231.307 35.7236 231.321 34.6063C231.305 33.4617 231.524 32.3259 231.965 31.268C232.295 30.4923 232.848 29.8307 233.554 29.366C234.256 28.8885 235.087 28.6349 235.937 28.6391C236.953 28.6318 237.938 28.9783 238.723 29.6184C239.586 30.3387 240.177 31.3283 240.401 32.4258H240.804V27.7512H240.401C240.382 28.026 240.271 28.2866 240.085 28.4911Z" fill="#096E40"/>
<path d="M65.5735 21.2092H57.847C57.847 21.2092 57.9214 24.3908 54.4568 22.0797V20.0776H62.2052V6.72424H70.7989V8.46522H64.0098V17.3268C64.0098 17.3268 64.0799 19.8164 66.997 20.0253H74.9513V6.72424H77.2508V19.96H81.0396V6.7373H94.2149V8.53921H83.1727V17.8143C83.1727 17.8143 83.2472 19.6075 85.6124 19.7555H89.169V18.8676C89.169 18.8676 87.1148 19.2114 87.0403 17.6881V9.73178H89.1647V14.6457H92.7914V10.0103H94.3682V19.9818H98.8622V6.59367H100.75V19.9122H104.613V5.11383C104.613 5.11383 105.012 2.50237 101.07 2.26733H92.3884V3.91691H99.0987C99.0987 3.91691 101.227 3.91691 100.75 5.09643L57.9083 5.07031V6.24982C57.9083 6.24982 56.8001 6.43263 55.381 5.1356H50.3789V13.4401H54.9473L57.3214 11.8427L57.8733 11.9124V18.6978H51.6929C51.6929 18.6978 50.7468 23.2635 53.007 23.4855H62.2358V22.2364H65.5428L65.5735 21.2092ZM70.7639 18.7152C70.7639 18.7152 69.8879 19.5466 68.1358 17.9361V10.772C68.1358 10.772 67.965 9.3183 70.7639 9.73178V18.7152ZM57.7638 9.71002C55.7445 11.6251 54.3867 11.4162 54.3867 11.4162V6.62849C55.5848 6.56771 56.7702 6.89619 57.7638 7.56426V9.71002Z" fill="#096E40"/>
<path d="M141.713 16.0039V19.8384H145.085V16.2651C145.033 14.0888 142.251 13.7711 142.251 13.7711H136.667L136.614 14.9071H140.394C141.835 14.9115 141.713 16.0039 141.713 16.0039Z" fill="#096E40"/>
<path d="M138.755 11.9343H145.268V7.99101C145.268 5.54929 142.478 5.07922 142.478 5.07922H137.98C137.67 5.1127 137.381 5.24846 137.159 5.46472C136.937 5.68098 136.794 5.9652 136.753 6.27179V10.3762C137.038 11.8777 138.755 11.9343 138.755 11.9343ZM139.763 6.96383H142.185V9.97138C142.185 9.97138 141.541 11.4773 139.71 9.76246L139.763 6.96383Z" fill="#096E40"/>
<path d="M149.872 19.9255H157.2V10.6591C157.188 10.5626 157.197 10.4647 157.225 10.3717C157.254 10.2787 157.302 10.1926 157.366 10.1189C157.429 10.0452 157.508 9.98551 157.596 9.94364C157.685 9.90178 157.781 9.87864 157.879 9.8757H159.451V15.338C159.565 16.2085 158.382 16.326 158.382 16.326V17.2575H161.194C163.144 17.0529 163.03 15.4904 163.03 15.4904V8.33058H157.274V6.74194H163.017V5.07495H146.688V6.74194H153.376V8.33929H146.688V9.88441V16.9745C146.683 19.4816 149.872 19.9255 149.872 19.9255ZM150.748 9.88441H153.336V18.5545H151.646C151.421 18.5324 151.211 18.4336 151.051 18.2749C150.891 18.1162 150.792 17.9074 150.77 17.684L150.748 9.88441Z" fill="#096E40"/>
<path d="M135.453 19.7861V5.07922H112.458V6.74186H119.681V7.94313H112.467V17.4402C112.467 19.7078 115.655 19.9385 115.655 19.9385H124.529V17.0876V6.74186H126.321C126.282 7.20722 126.091 7.64723 125.778 7.99536C124.902 8.82668 126.303 9.3011 126.303 9.3011V18.4804C125.357 19.1594 125.651 19.7296 125.651 19.7296C130.263 20.7132 129.908 17.7536 129.908 17.7536V10.646C129.847 8.96161 129.032 8.51766 129.032 8.51766C128.318 7.64717 129.198 6.92466 129.47 6.74186H131.7V19.7992H135.48L135.453 19.7861ZM119.777 18.4804H118.025C118.025 18.4804 117.438 18.5805 117.197 17.2313L117.324 9.75811H119.799L119.777 18.4804Z" fill="#096E40"/>
<path d="M171.896 19.9164H175.763V6.74588V5.08324C175.746 3.83844 177.401 3.91679 177.401 3.91679H184.112V2.25415H175.43C171.488 2.46742 171.887 5.10065 171.887 5.10065L171.896 19.9164Z" fill="#096E40"/>
<path d="M177.305 5.13589V13.4404H181.878L184.252 11.843L184.804 11.9126V18.6981V20.0822H189.14V6.72888H190.34V5.07495H184.847V6.25011C184.847 6.25011 183.739 6.44162 182.325 5.14024L177.305 5.13589ZM184.699 7.57761V9.70596C182.679 11.6254 181.321 11.4165 181.321 11.4165V6.62877C182.521 6.57022 183.707 6.90346 184.699 7.57761Z" fill="#096E40"/>
<path d="M194.588 12.905H197.764V12.0084C197.764 12.0084 196.095 12.3479 196.012 10.8289V6.25447H198.863V18.981H194.995C194.77 18.9598 194.56 18.8612 194.4 18.7024C194.24 18.5435 194.141 18.3342 194.119 18.1105V15.4991H190.046V17.4098C190.046 19.895 193.23 20.3433 193.23 20.3433H202.726V5.07496H193.883C193.656 5.07438 193.431 5.11832 193.221 5.20424C193.011 5.29017 192.82 5.41639 192.66 5.57569C192.499 5.73498 192.372 5.92422 192.285 6.13256C192.198 6.34091 192.153 6.56426 192.153 6.78982V10.9682C192.153 10.9682 192.223 12.757 194.588 12.905Z" fill="#096E40"/>
<path d="M226.318 3.91679H233.028V2.25415H224.346C220.615 2.45436 220.772 4.82645 220.799 5.07454H203.918V6.73717H214.964V8.53473H203.918V17.8142C203.918 17.8142 203.997 19.603 206.362 19.751H209.914V18.8544C209.914 18.8544 207.869 19.1939 207.785 17.6705V9.71425H209.91V14.6282H213.536V10.0102H215.113V19.9686H219.603V6.58484H220.794V19.9164H224.662V6.74588H226.545C226.983 7.00267 228.389 7.92974 228.538 9.20501V15.1374C228.538 15.1374 228.363 16.7522 227.601 16.6999H225.643V18.0492H229.195C229.195 18.0492 232.914 18.2059 232.914 14.6673V12.687C234.079 12.6434 235.021 13.5009 235.682 14.3931V19.838H239.878V6.74152H240.781V5.07454H224.662C224.233 3.91679 226.318 3.91679 226.318 3.91679ZM231.031 6.73717H235.695V11.1897C234.826 10.8053 233.869 10.6552 232.923 10.7545V10.032C232.923 10.032 233.164 9.16149 230.794 7.01573L231.031 6.73717Z" fill="#096E40"/>
<path d="M22.7835 14.9286C22.6899 14.9494 22.5948 14.9625 22.499 14.9678V15.1158C22.6226 15.1221 22.7458 15.0982 22.8579 15.0461L23.103 14.6849C23.1427 14.6389 23.17 14.5836 23.1822 14.5242C23.1945 14.4648 23.1913 14.4032 23.173 14.3454C23.14 14.2898 23.0951 14.2423 23.0413 14.2062C22.9876 14.17 22.9264 14.1462 22.8623 14.1365L22.8404 14.2801C22.8842 14.2801 23.0111 14.3236 23.0461 14.402C23.0527 14.4368 23.051 14.4726 23.0411 14.5066C23.0312 14.5407 23.0134 14.5719 22.9892 14.5978L22.7835 14.9286Z" fill="#096E40"/>
<path d="M22.4729 14.698H22.6044H22.7666H22.8236V14.6371C22.8291 14.5937 22.8195 14.5497 22.7964 14.5125C22.7732 14.4753 22.738 14.4471 22.6965 14.4325H22.6439L22.6132 14.4804L22.5299 14.6153L22.4729 14.698Z" fill="#096E40"/>
<path d="M22.5202 13.7405L22.6078 13.6317C22.3265 13.5368 22.028 13.5027 21.7324 13.5316V13.6796C21.9966 13.656 22.2629 13.6766 22.5202 13.7405Z" fill="#096E40"/>
<path d="M22.4154 14.0104C22.4154 14.0104 22.6036 13.7188 21.7371 13.8798L21.7633 14.315C21.7633 14.315 22.2666 14.3281 22.4154 14.0104Z" fill="#096E40"/>
<path d="M32.2627 20.8349C31.6905 20.6151 31.0565 20.6151 30.4843 20.8349C30.0586 20.9621 29.6097 20.9934 29.1703 20.9263L29.1396 21.0743C29.6124 21.1512 30.0966 21.1184 30.5544 20.9785C31.0908 20.7773 31.6825 20.7773 32.2189 20.9785C32.2189 20.9785 32.2189 20.9785 32.2451 20.9785L32.324 20.8523C32.3033 20.8396 32.2813 20.8294 32.2583 20.8218L32.2627 20.8349Z" fill="#096E40"/>
<path d="M30.7379 21.5618C30.3185 21.7165 29.8685 21.7717 29.4238 21.7228V21.8708C29.8879 21.925 30.3583 21.8667 30.7948 21.7011C30.9249 21.6512 31.0685 21.6483 31.2006 21.6928C31.3327 21.7373 31.4448 21.8265 31.5175 21.9448L31.6402 21.8621C31.5487 21.7153 31.4084 21.6049 31.2436 21.55C31.0788 21.4952 30.8999 21.4993 30.7379 21.5618Z" fill="#096E40"/>
<path d="M16.4682 28.8308C16.4682 28.8308 15.1279 29.0745 15.7192 30.0756L16.2449 30.4542L20.4191 29.9406C20.4191 29.9406 20.7564 29.6403 20.4191 28.7481C19.8989 28.5738 19.3983 28.3462 18.9255 28.0691L18.0057 28.13C17.6439 28.1254 17.2827 28.159 16.9282 28.2301L16.8931 27.6338C17.0667 27.4834 17.2764 27.38 17.5019 27.3335C17.6177 27.3072 17.7205 27.2414 17.7925 27.1476C17.8645 27.0537 17.9012 26.9378 17.8962 26.8199C17.8962 26.8199 17.9575 26.5805 17.7078 26.6241C17.7078 26.6241 17.7428 26.8243 17.191 26.7633C17.191 26.7633 15.8419 26.7633 16.3982 27.7252L16.4682 28.8308ZM16.2273 29.2094L16.2711 29.3705L16.0784 29.3356V29.2312L16.2273 29.2094ZM20.3359 29.71L16.2668 30.1713L15.8638 29.8144C15.8638 29.8144 15.7017 29.4444 15.9601 29.4967C16.0526 29.5898 16.1522 29.6756 16.258 29.7535L20.2921 29.3661L20.3359 29.71ZM17.3881 28.8133L18.3166 28.7568L18.4042 29.3182L17.4581 29.3835L17.3881 28.8133ZM19.9198 28.7655L19.9592 29.1441L19.5693 29.2094L19.5343 28.7263L19.9198 28.7655ZM19.3635 29.2007L18.6495 29.266L18.6189 28.7437L19.3153 28.7263L19.3635 29.2007ZM17.1734 28.352L17.7516 28.2911L17.8392 28.3476H18.4305L18.5882 28.2649L18.8466 28.204C18.9743 28.2737 19.0959 28.3537 19.2102 28.4434L17.0201 28.6784V28.5217C17.0217 28.4813 17.0375 28.4426 17.0646 28.4124C17.0918 28.3822 17.1287 28.3624 17.1691 28.3563L17.1734 28.352ZM17.2129 28.9613V29.3966L16.4639 29.4619L16.4288 29.1572C16.4288 29.1572 16.5777 29.0745 16.5515 28.9918L17.2129 28.9613ZM16.6522 27.8123H16.8274L16.8624 28.4129L16.6872 28.4347L16.6522 27.8123ZM16.6522 27.055L17.5895 26.9157V27.1028C17.2908 27.1632 17.0086 27.2864 16.7617 27.4641C16.6653 27.5772 16.5339 27.4641 16.5339 27.4641C16.4944 27.3981 16.4805 27.32 16.495 27.2446C16.5096 27.1692 16.5515 27.1017 16.6128 27.055H16.6522Z" fill="#096E40"/>
<path d="M20.9888 26.5934C21.1027 26.5934 21.186 26.4541 21.1772 26.2974C21.1685 26.1407 21.0677 26.0188 20.9537 26.0232C20.8895 26.0406 20.8339 26.0808 20.7976 26.1361C20.7612 26.1915 20.7466 26.2581 20.7564 26.3235C20.7696 26.4802 20.8748 26.5977 20.9888 26.5934Z" fill="#096E40"/>
<path d="M22.6216 7.3988L18.1802 16.3257L8.25049 17.7576L15.4382 24.7215L13.7387 34.5407L22.6216 29.9053L31.5044 34.5407L29.7918 24.7172L36.9795 17.7533L27.063 16.3257L22.6216 7.3988ZM29.0866 24.2558H27.0761C27.2708 24.0729 27.4206 23.8481 27.5142 23.5986C27.5142 23.5986 27.6937 22.8543 27.3477 22.8065C27.2301 23.061 27.097 23.3081 26.9491 23.5464C26.9032 23.7908 26.8282 24.029 26.7257 24.2558H26.2877C26.2527 24.1296 26.2352 23.8206 26.6907 23.2939C26.6907 23.2939 27.0499 23.072 26.6425 22.023L26.6162 22.0491C26.6135 22.1755 26.583 22.2998 26.5271 22.4132C26.4711 22.5267 26.3909 22.6268 26.2921 22.7064C26.0589 23.1881 25.9591 23.723 26.003 24.2558H25.5694L25.4993 23.7727C25.6167 23.1373 25.9216 22.551 26.3753 22.0883C26.4807 21.9722 26.5545 21.8314 26.5897 21.6791C26.625 21.5267 26.6206 21.368 26.5768 21.2178C26.6787 21.1752 26.7606 21.0959 26.8061 20.9958C26.8516 20.8957 26.8573 20.7822 26.8221 20.6781C26.8262 20.6066 26.8124 20.5352 26.7821 20.4702C26.7517 20.4052 26.7056 20.3487 26.648 20.3056C26.5904 20.2626 26.523 20.2343 26.4517 20.2234C26.3804 20.2124 26.3076 20.2191 26.2395 20.2429C26.2395 20.2429 26.2746 19.9643 26.4279 19.8686L26.3753 19.2201C26.3753 19.2201 26.0687 19.1243 26.3753 18.8588C26.3906 18.7373 26.3759 18.614 26.3324 18.4995C26.2888 18.385 26.2179 18.2827 26.1257 18.2016C26.1257 18.2016 25.9067 18.0492 25.7402 18.5106C25.7402 18.5106 25.6307 18.9458 25.784 19.0416C25.784 19.0416 25.8979 19.4116 25.7402 19.3942L25.8059 19.9774C25.8059 19.9774 26.1257 20.0078 25.8059 20.1558L25.4511 20.4039C25.405 20.0871 25.3243 19.7762 25.2102 19.4768C25.2102 19.4768 24.9693 19.2375 24.8029 19.7249C24.8029 19.7249 24.6058 19.8294 24.5707 19.6771C24.6596 19.4837 24.6824 19.2668 24.6358 19.0594C24.5891 18.852 24.4755 18.6654 24.3123 18.528C24.3123 18.528 23.9838 18.0449 23.8743 18.6891C23.8383 18.8963 23.8483 19.1088 23.9036 19.3117C23.9588 19.5147 24.0579 19.7032 24.194 19.8642C24.194 19.8642 24.4393 19.9077 24.1678 20.1602V20.565H24.0407C23.8821 20.3155 23.7444 20.0534 23.629 19.7815L23.4845 19.8642C23.4845 19.8642 23.1691 22.8718 25.1752 24.0991L25.2146 24.2776H23.0684V16.8784H26.6688L29.0866 24.2558ZM26.0775 25.9968C25.5766 26.0228 25.0876 26.158 24.6452 26.3929C24.5038 26.5686 24.3281 26.7139 24.1286 26.8202C23.9291 26.9264 23.7099 26.9913 23.4845 27.0109V27.2721L21.728 27.4201C21.6478 27.3142 21.5333 27.2389 21.4039 27.2068C21.4039 27.2068 22.223 26.3363 21.5047 25.6834C21.4971 25.6727 21.4921 25.6604 21.4901 25.6474C21.488 25.6345 21.4889 25.6212 21.4927 25.6087C21.4964 25.5961 21.503 25.5846 21.5119 25.5749C21.5208 25.5653 21.5318 25.5577 21.5441 25.5529C22.2366 25.4618 22.9404 25.5062 23.6159 25.6834C24.0916 25.8205 24.5941 25.8386 25.0786 25.7361C25.5631 25.6336 26.0146 25.4137 26.3929 25.0959C26.3929 25.0959 25.6439 25.814 26.0775 25.9968ZM20.1556 26.0055C20.4788 25.8282 20.8252 25.6964 21.1849 25.6138C21.3369 25.717 21.4459 25.8718 21.4915 26.049V26.6845C21.4915 26.6845 21.3864 27.185 20.9528 27.1633C20.6346 27.0199 20.3394 26.8307 20.0767 26.6018C20.0767 26.6018 20.2125 26.5496 20.1556 26.0055ZM26.2877 25.6356L26.625 25.2525C26.7989 25.1283 26.934 24.9578 27.0148 24.7607H28.8501L26.7739 26.258C26.1738 25.9054 26.2614 25.6356 26.2614 25.6356H26.2877ZM27.3828 23.2809C27.3865 23.4033 27.3643 23.525 27.3175 23.6383C27.2707 23.7515 27.2004 23.8537 27.1112 23.9381C27.0607 23.8181 27.0579 23.6834 27.1035 23.5615C27.149 23.4395 27.2394 23.3392 27.3565 23.2809H27.3828ZM26.2089 23.6857C26.2378 23.3242 26.3927 22.984 26.6469 22.7238C26.657 22.91 26.6198 23.0957 26.5387 23.2638C26.4575 23.4319 26.3351 23.577 26.1826 23.6857H26.2089ZM24.5357 19.9556C24.6928 20.1321 24.8104 20.3398 24.8807 20.565C24.9509 20.7901 24.9722 21.0274 24.943 21.2613C24.943 21.2613 24.8686 21.4659 24.4525 20.9959C24.3783 20.8292 24.3471 20.6469 24.3616 20.4653C24.3761 20.2837 24.436 20.1085 24.5357 19.9556ZM24.0977 19.3724C24.0451 19.1025 23.9969 18.6542 24.0977 18.6412C24.2128 18.7808 24.2975 18.9426 24.3465 19.1164C24.3955 19.2902 24.4077 19.4722 24.3824 19.6509C24.3101 19.6435 24.2426 19.6119 24.1909 19.5613C24.1391 19.5107 24.1062 19.444 24.0977 19.3724ZM26.2877 21.0263L26.3228 21.5878C25.9811 22.3625 25.7665 22.4104 25.7665 22.4104V21.5704C25.9486 21.3749 26.0874 21.1436 26.1738 20.8914C26.2483 20.8914 26.3096 21.0263 26.3096 21.0263H26.2877ZM26.2352 20.5911L26.2877 20.4561C26.2877 20.4561 26.6469 20.3125 26.6381 20.8914C26.6346 20.9116 26.6251 20.9302 26.6109 20.9451C26.5967 20.9599 26.5785 20.9703 26.5584 20.975C26.5384 20.9796 26.5174 20.9783 26.4981 20.9712C26.4787 20.964 26.462 20.9514 26.4498 20.9349C26.4318 20.8001 26.3629 20.6772 26.2571 20.5911H26.2352ZM25.968 19.9077C25.8716 19.7728 25.968 19.3419 25.968 19.3419C26.0775 19.2766 26.1344 19.3419 26.1344 19.3419C26.4104 19.8555 25.9899 19.9077 25.9899 19.9077H25.968ZM25.8848 18.8632C25.8848 18.8632 25.8278 18.4932 26.0293 18.4584L26.0687 18.9241C26.0687 18.9241 25.9154 19.1504 25.9067 18.8632H25.8848ZM25.968 20.3256L26.0162 20.7608C25.9189 20.8471 25.845 20.9564 25.8015 21.0785C25.7653 21.0099 25.7079 20.9547 25.6377 20.921C25.5675 20.8873 25.4883 20.8769 25.4117 20.8914C25.5229 20.6351 25.7303 20.4321 25.9899 20.3256H25.968ZM25.4117 21.1134L25.4467 21.2657L25.3241 21.3266V21.2135L25.4117 21.1134ZM25.6439 21.3571L25.6176 21.7923L25.1401 21.8228L25.1752 21.6792C25.4686 21.7184 25.6658 21.3571 25.6658 21.3571H25.6439ZM25.0657 21.0307L24.9868 20.491C24.9868 20.491 24.9606 20.1341 24.816 20.1558V19.9861C24.816 19.9861 24.9474 19.6335 25.127 20.0166L25.1927 21.0524L25.0657 21.0307ZM24.7941 21.6052C24.7941 21.6052 25.035 21.7097 25.0569 22.4104C25.0569 22.4104 23.7955 22.0535 23.6728 20.3473C23.9236 20.8676 24.3207 21.3044 24.816 21.6052H24.7941ZM25.1489 23.1155L25.2321 23.8162C24.8598 23.6106 24.5379 23.3256 24.2895 22.9817C24.0411 22.6378 23.8724 22.2435 23.7955 21.8272C23.7955 21.8272 24.9737 22.4322 25.1708 23.1155H25.1489ZM25.2102 22.0578L25.6001 22.0056L25.5694 22.2058C25.5694 22.2058 25.4029 22.2842 25.3942 22.4104H25.2365L25.2102 22.0578ZM25.3548 22.5584L25.5913 22.4931V22.8674C25.5004 22.9562 25.4418 23.0726 25.4248 23.1982L25.2978 23.2635L25.2365 22.6585L25.3548 22.5584ZM21.4696 14.9547C21.447 14.8107 21.3808 14.6769 21.2799 14.5712C21.179 14.4655 21.0481 14.3928 20.9046 14.3627C21.0839 14.2318 21.2209 14.0516 21.2987 13.8444C21.3765 13.6372 21.3918 13.412 21.3426 13.1963C21.3217 13.1228 21.3175 13.0456 21.3304 12.9703C21.3432 12.895 21.3729 12.8235 21.4171 12.761C21.5572 12.5652 21.9208 12.3258 22.8625 12.3519C23.1525 12.4479 23.408 12.6259 23.5978 12.864C23.7876 13.1021 23.9035 13.39 23.9312 13.6924C23.9307 13.9176 23.9073 14.1422 23.8612 14.3627C23.8612 14.4237 23.8612 14.4628 23.8612 14.4889C23.6966 14.7471 23.6024 15.0433 23.5878 15.3485C23.5733 15.6537 23.6388 15.9574 23.7779 16.2299L22.6917 16.3039H22.1179C22.1109 16.1188 22.0517 15.9393 21.9471 15.786C21.8972 15.7235 21.8349 15.6719 21.7641 15.6344C21.6932 15.597 21.6153 15.5745 21.5353 15.5683H21.509C21.4521 15.5683 21.3119 15.5683 21.2769 15.5118C21.2419 15.4552 21.2769 15.2941 21.4609 15.0156L21.4828 14.9808L21.4696 14.9547ZM22.6216 8.70454L26.4016 16.3126H24.0977C23.9382 16.0643 23.8534 15.7759 23.8534 15.4813C23.8534 15.1867 23.9382 14.8983 24.0977 14.65C24.1094 14.6132 24.1094 14.5736 24.0977 14.5368C24.0977 14.5368 24.0977 14.4672 24.0977 14.4149C24.1388 14.1705 24.1579 13.9229 24.1546 13.675C24.1254 13.3237 23.9939 12.9885 23.7761 12.7102C23.5583 12.432 23.2637 12.2228 22.9282 12.1082H22.9019H22.8756C21.9996 12.1082 21.4433 12.2692 21.1893 12.6304C21.1229 12.7258 21.0787 12.8346 21.0597 12.949C21.0408 13.0634 21.0476 13.1806 21.0798 13.292C21.1132 13.4626 21.0957 13.6391 21.0296 13.7999C20.9634 13.9607 20.8515 14.0988 20.7075 14.1973C20.6785 14.2258 20.6573 14.2611 20.6459 14.2999C20.6344 14.3387 20.633 14.3798 20.6418 14.4193C20.6598 14.4665 20.6879 14.5093 20.7242 14.5446C20.7606 14.5799 20.8042 14.607 20.852 14.6239C20.9409 14.6393 21.0239 14.6781 21.0925 14.7363C21.161 14.7945 21.2126 14.8699 21.2419 14.9547C21.0404 15.2724 20.9834 15.5118 21.0842 15.6815C21.134 15.7485 21.2008 15.8011 21.2777 15.8339C21.3547 15.8668 21.439 15.8788 21.5222 15.8687C21.567 15.8703 21.6108 15.8822 21.6503 15.9033C21.6898 15.9244 21.7239 15.9543 21.7499 15.9905C21.8208 16.0933 21.8603 16.2142 21.8638 16.3387H18.8416L22.6216 8.70454ZM18.5788 16.8654H22.5646V24.2645H20.8126H21.0754C22.0084 23.7466 21.7718 22.5845 21.7718 22.5845C21.3384 22.8289 21.0074 23.2196 20.8389 23.6857C20.7469 24.3559 20.4841 23.9163 20.4841 23.9163L20.506 23.1895C20.506 22.9457 20.909 22.6454 20.909 22.6454C21.0587 22.6122 21.1998 22.5483 21.3233 22.4579C21.4468 22.3674 21.5499 22.2524 21.6262 22.1201C21.7024 21.9878 21.7501 21.8412 21.7661 21.6896C21.7821 21.538 21.7662 21.3847 21.7193 21.2396C20.7425 21.5486 20.7557 22.2755 20.7557 22.2755C20.5848 22.8021 20.4666 22.5018 20.4666 22.5018L20.4184 21.7053C20.4184 21.5312 20.817 21.1612 20.817 21.1612C22.0741 20.9044 21.6273 19.6509 21.6273 19.6509C21.3847 19.7745 21.1726 19.9498 21.0061 20.1642C20.8395 20.3786 20.7226 20.6269 20.6637 20.8914C20.3352 21.5007 20.2826 21.1612 20.2826 21.1612L20.3045 20.43C21.6448 19.4116 21.3207 18.5324 21.3207 18.5324C20.3396 18.8457 20.3834 20.0209 20.3834 20.0209L20.2257 20.1384L20.1775 19.4116L20.2257 19.133C20.2782 17.7446 19.6957 17.9927 19.6957 17.9927C19.227 19.133 19.9629 19.6292 19.9629 19.6292L20.0724 20.4257C20.0724 20.4257 19.8402 20.9262 19.6957 20.1732C19.6868 20.1432 19.6795 20.1127 19.6738 20.0818C19.5976 19.8677 19.4687 19.6759 19.2989 19.5238C19.129 19.3718 18.9237 19.2644 18.7014 19.2113C18.6094 20.4649 19.4197 20.6172 19.4197 20.6172C19.666 20.6656 19.8937 20.7817 20.0767 20.9523L20.1556 22.0056C19.8972 22.0883 19.7176 21.479 19.7176 21.479C19.5923 21.2505 19.4118 21.0565 19.1924 20.9144C18.973 20.7724 18.7215 20.6867 18.4605 20.6651C18.5437 22.01 19.4898 22.1536 19.4898 22.1536C19.722 22.1057 20.2125 22.4931 20.2125 22.4931L20.2563 23.7292C19.7307 23.9033 19.63 23.3201 19.63 23.3201C19.4399 23.0082 19.1796 22.7444 18.8695 22.5495C18.5594 22.3547 18.2079 22.234 17.8429 22.1971C17.8429 23.7901 19.757 23.9381 19.757 23.9381C20.1337 23.8075 20.0855 24.1122 20.0417 24.2602H16.1609L18.5788 16.8654ZM9.52948 18.1711L17.9655 16.9481L16.7654 20.6172L16.599 19.442L16.4194 19.2418L16.3843 18.6194L16.1741 18.528C16.1741 18.528 15.9638 18.3713 16.6559 18.1842C16.6559 18.1842 17.3085 18.4584 17.3698 17.8273C17.3698 17.8273 17.418 17.4791 17.164 17.701C17.164 17.701 17.2034 17.8751 16.4982 17.8142C16.4982 17.8142 15.8149 18.0623 15.9113 19.1722L15.5872 19.1939L14.9564 19.1504L14.8688 18.8457C14.8688 18.8457 14.6279 18.6499 15.0878 18.5193C15.0878 18.5193 15.758 18.6107 15.6572 17.9927C15.6572 17.9927 15.5433 18.3496 15.0615 18.1406C15.0615 18.1406 14.3607 18.2146 14.4658 19.2853H13.6643L13.6906 19.7206L12.4247 19.664L13.454 21.1525L16.7479 20.7739L15.6441 24.0904L9.52948 18.1711ZM14.1198 19.6379L15.2324 19.738L15.8237 20.6651L14.79 20.6999L14.1198 19.6379ZM14.387 20.7608L13.5592 20.8174L12.9284 19.8207L13.9096 19.9948L14.387 20.7608ZM14.6191 19.0808L14.7856 19.0373L14.9039 19.3071L14.6761 19.3593L14.6191 19.0808ZM15.4952 19.516L16.4413 19.6988L16.599 20.6172L16.0252 20.5563L15.4952 19.516ZM16.0777 19.2026V18.8544L16.2442 18.8109V19.2244L16.0777 19.2026ZM14.5315 33.4656L15.9726 25.1046L22.1047 29.5179L14.5315 33.4656ZM16.4325 24.7607H26.3709C25.9866 25.0882 25.5267 25.3161 25.0322 25.4239C24.5377 25.5318 24.024 25.5162 23.537 25.3788V25.0393L21.347 25.3222L20.69 25.4571C20.571 25.5763 20.4278 25.6691 20.2699 25.7291C20.1121 25.7891 19.9432 25.8151 19.7745 25.8053C19.6846 25.9172 19.6356 26.0561 19.6356 26.1992C19.6356 26.3424 19.6846 26.4813 19.7745 26.5931C21.0886 28.1295 23.7867 27.5463 23.7867 27.5463C24.1459 27.5724 23.9882 27.3809 23.9882 27.3809C23.8042 27.3504 23.8086 27.1328 23.8086 27.1328L24.9168 26.8673C25.3548 26.789 25.0963 26.4321 25.0963 26.4321L26.2877 26.271C26.3649 26.3251 26.4368 26.3863 26.5024 26.4538L22.7092 29.1872L16.4325 24.7607ZM20.0023 26.1753C20.0023 26.258 20.0023 26.3276 19.9672 26.3276C19.9322 26.3276 19.9191 26.2623 19.9103 26.184C19.9015 26.1056 19.9103 26.036 19.9497 26.036C19.9891 26.036 19.9935 26.1143 20.0023 26.1753ZM26.0381 28.1774C25.99 28.2517 25.9257 28.3142 25.8498 28.3602C25.7739 28.4062 25.6885 28.4345 25.6001 28.4429C25.4181 28.4568 25.2451 28.5268 25.1051 28.6431L24.8554 28.4777L26.0074 27.5506C26.0555 27.6474 26.083 27.753 26.0882 27.8609C26.0935 27.9687 26.0764 28.0764 26.0381 28.1774ZM26.0381 28.8477H26.0687C26.1687 28.9412 26.2296 29.0685 26.2395 29.2046C26.2442 29.2715 26.2353 29.3387 26.2135 29.4023C26.1917 29.4658 26.1574 29.5243 26.1125 29.5745C26.0576 29.6374 25.9905 29.6886 25.9153 29.7253C25.84 29.7619 25.7582 29.7832 25.6745 29.7878C25.5243 29.8024 25.3743 29.7577 25.257 29.6631C25.1398 29.5686 25.0647 29.432 25.0482 29.2829C25.0539 29.1309 25.1196 28.9872 25.231 28.883C25.3425 28.7787 25.4908 28.7223 25.6439 28.7258C25.6934 28.7209 25.7433 28.7209 25.7928 28.7258C25.8696 28.7428 25.9415 28.7771 26.003 28.8259L26.0381 28.8477ZM30.716 33.4656L23.1603 29.5179L24.505 28.5473L24.5882 28.6039L24.9518 28.8477C24.8612 28.9858 24.8168 29.1487 24.8248 29.3134C24.8448 29.531 24.9503 29.7319 25.1183 29.8729C25.2864 30.0138 25.5035 30.0833 25.7227 30.0664C25.841 30.0597 25.9568 30.0293 26.0629 29.9769C26.1691 29.9246 26.2634 29.8513 26.3403 29.7617C26.4749 29.6064 26.5426 29.4047 26.5286 29.2002C26.5194 29.0687 26.4772 28.9415 26.406 28.8303C26.7783 28.6953 26.9929 28.2035 27.0893 27.9119C27.1769 27.9775 27.2708 28.0344 27.3696 28.0816C27.2459 28.176 27.1476 28.2993 27.0834 28.4405C27.0192 28.5818 26.9911 28.7366 27.0017 28.8912C27.0073 29.0113 27.0367 29.1291 27.0882 29.2378C27.1397 29.3466 27.2123 29.4442 27.3018 29.5251C27.3913 29.6059 27.496 29.6684 27.6098 29.709C27.7237 29.7496 27.8445 29.7675 27.9653 29.7617C28.1641 29.7444 28.3523 29.6651 28.5031 29.5352C28.6538 29.4052 28.7593 29.2312 28.8045 29.038C28.8497 28.8449 28.8323 28.6424 28.7547 28.4597C28.6771 28.277 28.5434 28.1233 28.3727 28.0207C28.6317 27.8627 28.8328 27.6262 28.9464 27.3461L28.7055 27.259C28.6407 27.4277 28.5312 27.5758 28.3885 27.6877C28.2459 27.7996 28.0754 27.871 27.8952 27.8945H27.8164C27.7363 27.9028 27.6556 27.9028 27.5755 27.8945C27.4102 27.8295 27.2608 27.7301 27.1375 27.6029L26.9754 27.32L26.9009 27.642C26.9009 27.642 26.6557 28.63 26.1738 28.5996C26.1389 28.5767 26.1023 28.5563 26.0643 28.5386C26.1428 28.4781 26.2083 28.4026 26.2571 28.3167C26.3253 28.157 26.3565 27.984 26.3481 27.8107C26.3398 27.6373 26.2922 27.4681 26.2089 27.3156L29.275 25.1089L30.716 33.4656ZM27.8164 28.173H27.9259C28.0954 28.1829 28.2549 28.256 28.3725 28.3776C28.4902 28.4992 28.5574 28.6604 28.5607 28.8291C28.5641 28.9977 28.5032 29.1614 28.3904 29.2875C28.2776 29.4136 28.1211 29.4928 27.9522 29.5092C27.8651 29.5145 27.7779 29.5025 27.6956 29.474C27.6133 29.4455 27.5376 29.4009 27.4727 29.343C27.4079 29.2851 27.3553 29.2149 27.3181 29.1366C27.2808 29.0583 27.2596 28.9734 27.2557 28.8868C27.2414 28.7195 27.2912 28.553 27.3952 28.4207C27.4991 28.2883 27.6496 28.1999 27.8164 28.173ZM35.7006 18.1624L29.5684 24.0817L28.1405 19.7293C28.6287 19.9897 29.1482 20.1872 29.6867 20.3169C29.6867 20.3169 29.6516 20.3909 28.9289 20.3169C28.9289 20.3169 28.8194 20.7869 30.3525 20.5127C31.007 20.2571 31.7219 20.1951 32.4111 20.3343C32.4111 20.3343 33.0112 20.5475 32.4593 20.0514C32.4593 20.0514 33.9003 19.2723 34.3865 19.3811L34.645 19.046L33.7339 19.1504C33.6528 18.9585 33.537 18.7829 33.3922 18.6325C33.3922 18.6325 33.0813 18.7239 33.0243 18.3017L32.6476 18.2538L31.4562 17.6923C31.4562 17.6923 31.3424 17.5879 30.4401 17.4747L29.2312 17.4399C29.2312 17.4399 28.8238 17.54 28.7931 18.2233C28.7931 18.2233 28.8676 19.3985 29.275 19.3332C29.275 19.3332 29.1874 19.5595 29.275 19.6596C28.8626 19.6438 28.4569 19.5508 28.0792 19.3854L27.282 16.9481L35.7006 18.1624ZM32.0563 18.7456L30.6678 18.1015C30.7172 18.0136 30.7899 17.9408 30.8779 17.891C30.9659 17.8411 31.0659 17.8161 31.1672 17.8186L32.5819 18.5019C32.5819 18.5019 32.7615 18.7152 32.0738 18.7543L32.0563 18.7456ZM32.7834 18.8414L33.0287 19.3289L32.4768 19.4377L32.3454 19.0024L32.7834 18.8414ZM32.0432 19.6074L29.529 19.7032C29.529 19.7032 29.2224 19.294 30.0064 19.1287L32.0038 19.0677L32.0432 19.6074ZM31.6446 18.7718L30.2298 18.9154C30.2126 18.8539 30.2077 18.7897 30.2156 18.7264C30.2234 18.6631 30.2438 18.6019 30.2756 18.5465C30.3074 18.4911 30.3499 18.4424 30.4006 18.4034C30.4514 18.3644 30.5095 18.3357 30.5715 18.3191L31.6446 18.7718ZM29.9539 18.8501L29.5772 18.9458C29.0647 19.5204 29.0121 18.0754 29.0121 18.0754C29.1611 17.6401 29.3669 17.7315 29.3669 17.7315H30.6153C29.8137 18.515 29.9714 18.8588 29.9714 18.8588L29.9539 18.8501Z" fill="#096E40"/>
<path d="M22.6213 6.48499C19.4644 6.48585 16.3788 7.41688 13.7545 9.16035C11.1302 10.9038 9.0851 13.3814 7.87785 16.2798C6.67059 19.1783 6.35539 22.3673 6.9721 25.4438C7.58881 28.5202 9.10974 31.3458 11.3425 33.5633C13.5754 35.7808 16.4198 37.2906 19.5161 37.9017C22.6124 38.5129 25.8215 38.1979 28.7377 36.9967C31.6539 35.7954 34.1461 33.7619 35.8992 31.1532C37.6523 28.5445 38.5876 25.4778 38.5867 22.341C38.5861 20.2582 38.1727 18.1958 37.3701 16.2718C36.5674 14.3478 35.3912 12.5997 33.9087 11.1273C32.4262 9.65493 30.6663 8.48714 28.7296 7.69062C26.7929 6.89409 24.7173 6.48441 22.6213 6.48499ZM22.6213 37.5136C19.6015 37.5127 16.6498 36.6221 14.1394 34.9544C11.629 33.2867 9.67265 30.9168 8.51764 28.1443C7.36264 25.3717 7.06088 22.3212 7.65054 19.3783C8.24019 16.4353 9.69477 13.7322 11.8304 11.6107C13.9659 9.48925 16.6866 8.04463 19.6484 7.45954C22.6102 6.87445 25.68 7.17518 28.4698 8.32369C31.2596 9.47219 33.6441 11.4169 35.3217 13.9119C36.9992 16.407 37.8946 19.3403 37.8946 22.341C37.89 26.3636 36.2798 30.2201 33.4173 33.0645C30.5548 35.909 26.6738 37.509 22.6256 37.5136H22.6213Z" fill="#096E40"/>
<path d="M5.17198 29.4662C4.78456 29.4645 4.40534 29.577 4.08231 29.7896C3.75928 30.0021 3.50697 30.3051 3.35731 30.6602C3.20765 31.0153 3.16737 31.4065 3.24157 31.7843C3.31577 32.1622 3.50111 32.5097 3.77414 32.7828C4.04716 33.0559 4.3956 33.2424 4.77534 33.3187C5.15509 33.395 5.54906 33.3576 5.90741 33.2113C6.26576 33.0649 6.57236 32.8163 6.78841 32.4967C7.00446 32.1771 7.12025 31.8011 7.12112 31.4161C7.12228 31.1608 7.07274 30.9078 6.97536 30.6716C6.87798 30.4353 6.73466 30.2205 6.5536 30.0394C6.37255 29.8583 6.15732 29.7144 5.92025 29.6161C5.68317 29.5177 5.42889 29.4668 5.17198 29.4662Z" fill="#096E40"/>
<path d="M40.0767 29.3141C39.6877 29.3098 39.3062 29.4205 38.9806 29.6321C38.6551 29.8437 38.4001 30.1467 38.2483 30.5026C38.0964 30.8585 38.0544 31.2512 38.1276 31.6309C38.2008 32.0105 38.386 32.36 38.6595 32.6349C38.933 32.9098 39.2826 33.0977 39.6639 33.1747C40.0451 33.2517 40.4408 33.2144 40.8006 33.0674C41.1604 32.9205 41.4682 32.6706 41.6848 32.3495C41.9014 32.0284 42.0171 31.6506 42.0171 31.264C42.0183 30.7502 41.8149 30.2569 41.4514 29.8916C41.0879 29.5263 40.5937 29.3187 40.0767 29.3141Z" fill="#096E40"/>
<path d="M15.2979 41.8316L13.4714 41.0525L13.3225 41.5443L14.2686 41.8882C14.7898 42.0927 14.5752 42.4322 14.5752 42.4322L14.1372 43.4812L15.276 43.9164L15.5826 42.9023C15.8761 42.0144 15.2979 41.8316 15.2979 41.8316Z" fill="#096E40"/>
<path d="M9.46429 34.7764C8.97372 35.2116 9.13579 35.303 9.13579 35.303C9.57561 35.7547 10.0469 36.175 10.5462 36.5609C10.6907 36.6523 10.6031 36.8525 10.6031 36.8525C10.3841 37.1049 10.2571 36.9004 10.2571 36.9004L8.88174 35.9124C8.55761 35.673 8.44373 35.8732 8.44373 35.8732L6.76178 37.7926C6.66392 37.9677 6.60789 38.1627 6.59801 38.3627C6.58814 38.5627 6.62469 38.7623 6.70483 38.946L8.89488 40.7349L11.5229 37.6882C11.685 37.4401 11.8514 37.5706 11.8514 37.5706L12.3771 38.0059L10.1169 41.5705L11.1594 42.206L13.8269 38.119C12.187 37.2671 10.7104 36.1357 9.46429 34.7764ZM9.8366 37.6882L8.35613 39.3682C8.35613 39.3682 7.97506 39.4465 7.7692 38.933C7.7692 38.933 7.61589 38.7371 7.9225 38.341C7.9225 38.341 9.07885 36.7828 9.42487 36.896L9.98553 37.3313C9.98553 37.3313 10.152 37.3835 9.8366 37.6882Z" fill="#096E40"/>
<path d="M16.1086 39.1983L15.0136 38.5976C14.1376 38.4018 13.9448 39.4681 13.9448 39.4681C13.6207 40.3038 13.9448 40.4648 13.9448 40.4648C14.2746 40.7959 14.6874 41.0334 15.1406 41.1525C15.1977 41.2004 15.2645 41.2354 15.3364 41.2551C15.4084 41.2748 15.4838 41.2788 15.5575 41.2668C15.6312 41.2548 15.7014 41.2271 15.7632 41.1856C15.8251 41.1441 15.8772 41.0897 15.9159 41.0263L16.2663 40.0862C16.4941 39.3027 16.1086 39.1983 16.1086 39.1983ZM15.4122 40.1384C15.4122 40.1384 15.2457 40.6389 15.0442 40.5736C14.9699 40.5587 14.8996 40.528 14.8382 40.4837C14.7768 40.4394 14.7257 40.3825 14.6884 40.3169C14.651 40.2513 14.6282 40.1785 14.6216 40.1034C14.615 40.0283 14.6247 39.9527 14.65 39.8816C14.8252 39.3419 14.8121 39.4464 14.8121 39.4464C14.8869 39.3751 14.9847 39.3324 15.0882 39.326C15.1917 39.3197 15.294 39.35 15.3771 39.4115C15.3771 39.4115 15.6837 39.4986 15.4122 40.1384Z" fill="#096E40"/>
<path d="M38.9332 38.1492L38.5478 38.2275L35.2408 34.8196L34.483 35.6422L34.886 36.1253C33.134 36.2559 33.4493 37.5312 33.4493 37.5312C32.7899 37.3588 32.0908 37.4172 31.4695 37.6965C24.6541 41.975 17.1992 39.4985 17.1992 39.4985V40.086C18.0752 40.4386 20.3485 40.6301 20.3485 40.6301L20.239 41.5006L20.1557 41.5311C19.7747 41.1785 18.741 41.1742 18.741 41.1742L17.7686 40.913C16.9276 40.7259 17.0065 41.0784 17.0065 41.0784L16.5947 43.6246C16.6779 44.8259 18.4694 44.6605 18.4694 44.6605V44.2862C18.3074 44.3098 18.1425 44.2685 18.0111 44.1714C17.8796 44.0743 17.7924 43.9292 17.7686 43.7682L18.0358 41.7052C18.2548 41.4875 18.6928 41.7878 18.6928 41.7878L18.5526 43.0109L19.2797 42.963L19.4155 41.901C20.1776 41.7095 20.1207 42.5756 20.1207 42.5756L19.7177 44.8868L20.9354 45L21.5136 40.7607C21.8474 40.7976 22.1847 40.7903 22.5166 40.7389L22.7838 45L23.9796 44.9738L23.708 40.7389L24.6629 40.6301L25.3637 43.7508C25.3703 43.8736 25.4016 43.9939 25.4557 44.1045C25.5098 44.2151 25.5855 44.3139 25.6786 44.395C25.7716 44.4761 25.88 44.5379 25.9975 44.5767C26.1149 44.6156 26.2389 44.6307 26.3623 44.6213L27.2865 44.4341C27.8297 44.3558 27.5055 44.0294 27.5055 44.0294H27.1201C26.6821 44.1643 26.5857 43.4853 26.5857 43.4853L25.828 40.4386C26.3913 40.3681 26.946 40.2412 27.4836 40.0599L28.7232 43.4461C28.9948 43.6681 29.4591 43.2372 29.4591 43.2372C30.6242 43.3112 30.7731 40.9609 30.7731 40.9609L31.8813 42.9674L32.858 42.3754L31.4433 39.3635C31.1641 39.4356 30.8926 39.5347 30.6329 39.6595C30.5109 39.7028 30.3992 39.7709 30.305 39.8593C30.2108 39.9477 30.136 40.0545 30.0854 40.1731C30.2519 41.6921 29.6474 42.2927 29.6474 42.2927L28.6444 39.7378C29.2707 39.4419 29.9584 39.0893 31.7104 38.3277C33.4625 37.566 33.7954 38.9022 33.7954 38.9022C33.9574 39.8205 33.7954 39.5812 33.1997 39.555C32.604 39.5289 32.9018 39.851 32.9018 39.851C34.8247 41.4527 34.9079 39.4723 34.9079 39.4723C36.8352 39.7204 36.0161 37.7618 35.6438 37.6008C35.2715 37.4398 35.4554 37.9533 35.4554 37.9533C35.3415 38.6889 34.7502 38.2537 34.7502 38.2537C34.5536 38.0551 34.3789 37.8362 34.229 37.6008C34.0407 37.2787 34.229 36.6998 34.9386 36.7303C35.6481 36.7608 35.7533 36.9262 35.7533 36.9262C35.7533 36.9262 36.8658 38.1753 37.5053 38.8238C38.1448 39.4723 38.4339 38.9326 38.4339 38.9326L38.8719 38.554C39.2793 38.3015 38.9332 38.1492 38.9332 38.1492Z" fill="#096E40"/>
<path d="M2.47779 23.5992L4.22982 23.6471C4.23909 24.4063 4.36009 25.16 4.58899 25.8843C5.09488 25.9488 5.60894 25.8782 6.07823 25.6797C6.15895 25.6376 6.23044 25.58 6.28855 25.5102C6.34666 25.4404 6.39023 25.3599 6.41672 25.2732C6.44322 25.1865 6.4521 25.0955 6.44287 25.0054C6.43363 24.9153 6.40646 24.8279 6.36293 24.7483C6.06509 24.1041 6.17459 22.411 6.17459 22.411L5.57013 22.3631L5.62708 21.3273H5.18907L5.22411 23.6036L5.66212 23.6558C5.73762 23.9735 5.73762 24.3044 5.66212 24.6221C5.42643 24.6531 5.18693 24.6383 4.95692 24.5785C4.95692 24.5785 4.68097 22.9377 4.81676 22.4676L0.607484 22.4241L0.918471 18.459L1.61929 18.4938L1.38276 20.8354L4.15536 21.0966C4.15536 21.0966 4.88246 21.2228 4.89122 19.9867C4.94222 19.2919 5.05508 18.603 5.22849 17.928L1.25136 17.1359C1.3433 16.5775 1.49 16.0293 1.68937 15.4993L5.57451 16.9052L5.93806 15.6691L2.07482 14.2981C2.07482 14.2981 3.38885 11.1556 4.72916 9.51037L5.22849 9.91515C4.51115 10.9021 3.88933 11.9543 3.37133 13.0576L5.39931 14.211C5.5802 14.3361 5.80059 14.3918 6.01966 14.3678C6.23872 14.3438 6.4416 14.2417 6.5907 14.0804L7.43168 12.7747L6.84912 12.4265L6.5688 12.8618C6.5688 12.8618 6.39359 13.3275 5.88112 12.9009L4.56709 12.2263L5.0051 11.5517L6.02128 12.1001L6.45929 11.4516L5.46501 10.7639L5.85046 10.2982L8.08869 11.7562L8.87273 10.8814L5.50881 8.53542C5.81861 8.1017 6.17717 7.70451 6.57756 7.35155L9.40272 10.1458L10.3663 9.27534L6.93234 5.79338C6.93234 5.79338 6.17897 5.09263 5.25477 6.03276L2.71869 9.0403C2.71869 9.0403 2.94208 9.62353 3.33628 9.31451C3.33628 9.31451 5.08832 7.00771 5.52633 6.65951C5.52633 6.65951 6.24029 6.52024 6.0169 7.06864C3.95749 9.30036 2.3674 11.9183 1.33995 14.769C0.312504 17.6196 -0.131603 20.6454 0.0336911 23.6689L0.611864 23.7298C0.611864 23.7298 -0.202834 24.6003 0.572443 26.3848C0.572443 26.3848 2.37266 26.2151 2.94646 26.1411C3.02282 25.3285 2.79859 24.5162 2.31572 23.856C2.31572 23.856 2.2544 23.6123 2.47779 23.5992ZM2.27192 18.7158L4.27363 19.0205L4.24735 19.3295C4.15974 19.9737 3.86628 19.8605 3.86628 19.8605L2.16242 19.6124L2.27192 18.7158ZM1.32144 25.0094H0.88343C0.861046 24.7966 0.882513 24.5815 0.946523 24.3773C1.01053 24.173 1.11574 23.9838 1.25574 23.8212C1.5492 23.534 1.72441 23.7559 1.72441 23.7559L2.13176 24.7048C2.13176 24.7048 2.42084 25.1052 1.32144 25.0094Z" fill="#096E40"/>
<path d="M11.3431 3.59493L13.1477 2.61127L13.3536 2.9203C13.5901 3.23367 13.3536 3.2859 13.3536 3.2859L11.8906 4.00406C11.3343 4.23474 11.3957 4.53941 11.3957 4.53941L12.3243 6.5633C12.4335 6.73551 12.5979 6.86612 12.791 6.93404C12.9842 7.00195 13.1947 7.00321 13.3886 6.93761C13.9786 6.60369 14.5869 6.3029 15.2107 6.03665C15.9159 5.95395 15.8327 5.60141 15.8327 5.60141L14.4617 2.07157C15.1574 1.79993 15.8699 1.57313 16.5948 1.39259L15.9685 2.14556C16.4065 2.20214 16.7876 4.28697 16.7876 4.28697C16.8284 4.35742 16.8485 4.43783 16.8457 4.51908C16.8429 4.60033 16.8173 4.67917 16.7717 4.74667C16.7261 4.81418 16.6624 4.86764 16.5878 4.90101C16.5132 4.93438 16.4306 4.94632 16.3496 4.93548C16.2853 5.02633 16.2542 5.13624 16.2614 5.24705C16.2685 5.35785 16.3136 5.4629 16.389 5.54482L17.3745 5.27497C18.3513 5.07911 17.9439 4.05629 17.9439 4.05629L17.4402 2.05416C17.1424 2.05416 17.2037 1.88006 17.2037 1.88006C18.0271 0.731017 18.7367 0.870296 18.7367 0.870296L19.2798 4.7875L20.5457 4.61775L19.8712 0.156494C15.3027 0.46987 10.8525 3.20321 10.8525 3.20321C11.1635 3.88219 11.3431 3.59493 11.3431 3.59493ZM14.5231 5.59705C14.5231 5.59705 14.4968 5.7755 14.1902 5.88432C14.1902 5.88432 13.577 6.40226 13.3536 5.74939L12.8367 4.44366C12.8367 4.44366 12.7097 4.33049 13.0207 4.15639L13.7259 3.83431L14.5231 5.59705Z" fill="#096E40"/>
<path d="M22.1447 2.21975L23.3054 2.38079C24.2647 2.47654 24.2034 2.22845 24.2034 2.22845L24.291 0.796498C24.3873 0.226327 23.6602 0.0348196 23.6602 0.0348196L21.7593 0L21.6804 1.44501C21.7155 2.12835 22.1447 2.21975 22.1447 2.21975ZM22.5652 1.30573L22.609 0.548408H23.1083C23.4325 0.58758 23.4106 0.844375 23.4106 0.844375L23.3449 1.71486H22.8674C22.4907 1.69745 22.5652 1.30573 22.5652 1.30573Z" fill="#096E40"/>
<path d="M23.0383 4.48292L23.9144 4.60044L24.002 3.5515C24.0852 2.82899 23.196 2.83334 23.196 2.83334L21.6717 2.74194L21.6323 3.28165L23.0778 3.34693L23.0383 4.48292Z" fill="#096E40"/>
<path d="M26.4367 4.99667C26.9913 5.04694 27.5326 5.19429 28.0355 5.43192C28.272 5.57555 28.4078 5.51897 28.4078 5.51897C28.412 5.42364 28.4252 5.32893 28.4472 5.23606L29.0692 2.95973L29.897 3.20346C30.1992 3.38627 30.0328 3.5299 30.0328 3.5299L29.8795 4.11313C29.805 4.52226 29.2181 4.16971 29.2181 4.16971L29.0648 4.84869L29.6079 5.02279C30.7949 5.26217 30.7424 4.70941 31.0533 4.07395C31.3643 3.4385 31.2986 3.04678 30.7117 2.82045C30.1248 2.59412 29.2093 2.30686 29.2093 2.30686L29.3845 1.71493C30.0196 1.73669 31.7235 2.52013 31.7235 2.52013L31.8856 2.08489C29.7919 0.931486 26.1257 0.322144 26.1257 0.322144L26.0688 0.870552C26.8008 0.956727 27.5245 1.10229 28.2326 1.3058L28.1318 1.90643C27.3925 1.70316 26.6383 1.55763 25.8761 1.47119L25.4381 3.51249C25.3992 3.67552 25.3946 3.84477 25.4245 4.00966C25.4544 4.17455 25.5182 4.33154 25.6119 4.47082C25.7056 4.6101 25.8273 4.72869 25.9692 4.81917C26.1111 4.90964 26.2703 4.97007 26.4367 4.99667ZM26.8747 2.44179L27.8427 2.49837L27.4047 4.44826C27.4047 4.44826 26.6952 4.64848 26.6295 4.09572L26.8747 2.44179Z" fill="#096E40"/>
<path d="M38.7934 7.4992L38.6401 7.61672C38.5206 7.48075 38.4498 7.30937 38.4386 7.12924C38.4386 7.12924 38.4386 7.10748 38.4386 7.09877C38.4298 7.00322 38.4298 6.90707 38.4386 6.81151L37.8122 6.03243L37.7422 5.94102L37.4969 5.63635L37.4443 5.67552L37.1815 5.88879L35.4864 7.19888L36.3624 8.26958L37.1859 8.53073L37.2691 8.67001L35.6572 9.93657L35.4338 10.115C35.7361 10.4284 36.0295 10.7548 36.3099 11.0856L39.6431 8.47415L39.9059 8.26523C39.63 7.93444 39.3453 7.60801 39.0299 7.29464L38.7934 7.4992ZM37.7728 8.23912C36.945 8.12595 36.7391 7.7647 36.7391 7.7647L37.8736 6.87245C38.1102 7.14099 38.2531 7.47843 38.2809 7.83434L37.7728 8.23912Z" fill="#096E40"/>
<path d="M36.5678 5.59731L36.6554 5.51461L36.8963 5.28393C37.0583 4.95314 37.4876 5.41015 37.4876 5.41015L38.8761 6.87257L39.2396 6.52438L37.4482 4.63106C36.5722 3.81715 36.0947 4.44391 36.0947 4.44391L35.9633 4.57013L35.718 4.7921L32.5381 7.70389C32.8666 7.92151 33.182 8.13914 33.4929 8.39593L36.5678 5.59731Z" fill="#096E40"/>
<path d="M39.4283 11.4426L39.9846 12.4001L40.2124 12.2696C40.2124 12.2696 39.805 11.769 40.1861 11.5166L41.3687 10.8463L41.5176 11.1075L41.8111 11.6123L38.4997 13.4926L37.8997 12.4524C37.8682 12.3903 37.8598 12.3192 37.8758 12.2516C37.8918 12.1839 37.9313 12.124 37.9873 12.0824L38.6618 11.6994L38.0223 10.5982L37.5274 10.8811C36.8835 11.2511 37.2646 12.1869 37.2646 12.1869L38.7494 14.7505L39.3495 14.4023L42.3761 12.6613L42.6784 12.4872L42.4944 12.0868V12.0563L42.4199 11.9214L41.7936 10.8463L41.6184 10.546L41.3599 10.1107C41.3229 10.0533 41.2771 10.0019 41.2242 9.95841H41.1979C41.1337 9.9173 41.0615 9.89023 40.9859 9.87897C40.9104 9.86771 40.8334 9.87254 40.7599 9.89312C40.7338 9.90196 40.7089 9.91364 40.6854 9.92794L39.6079 10.546C39.6079 10.546 39.0779 10.781 39.4283 11.4426Z" fill="#096E40"/>
<path d="M45.0918 20.365H44.9604C44.9604 20.3041 44.9604 20.2475 44.9604 20.1909C44.9604 20.1343 44.9604 20.0734 44.9604 20.0168C44.9297 19.747 44.8947 19.4858 44.8552 19.2203L44.8158 18.9374L44.7764 18.7024C44.7764 18.6676 44.7764 18.6284 44.7764 18.5936C44.7583 18.4589 44.7335 18.3253 44.7019 18.1931C44.6999 18.1613 44.6999 18.1293 44.7019 18.0974L44.5837 17.562C44.553 17.4315 44.5267 17.3009 44.4961 17.1703C44.4941 17.1442 44.4941 17.1181 44.4961 17.092C44.461 16.9571 44.426 16.8221 44.3866 16.6872C44.3472 16.5523 44.2946 16.3434 44.242 16.1736C44.1895 16.0039 44.15 15.8559 44.0975 15.6992C44.0449 15.5425 44.023 15.4685 43.9836 15.3553C43.8259 14.8853 43.6595 14.4196 43.4755 13.9669L42.9806 14.1105C43.4038 15.1387 43.7507 16.1963 44.0186 17.2748L43.5544 17.3792L42.617 14.215L39.9276 15.0028C39.9276 15.0028 39.4195 15.1769 39.5772 15.8733L39.8795 16.8918L40.1379 16.8178C40.1379 16.8178 39.8663 16.2607 40.2999 16.104L42.4944 15.4076L42.674 16.0213L41.2504 16.4565L41.557 17.4924L42.9324 17.0789L43.0682 17.5142L39.9539 18.302C40.0634 18.7372 40.1466 19.1724 40.2167 19.6077C40.2167 19.6077 40.2167 19.6077 40.2167 19.6338L44.2464 18.8112C44.334 19.3248 44.4041 19.8427 44.4523 20.365L40.3394 20.4521C40.3394 20.4521 40.4138 21.1746 40.4313 21.5402L44.5267 21.5184C44.5267 21.7926 44.5267 22.0625 44.5267 22.3367C44.5267 22.3976 44.5267 22.4585 44.5267 22.5238C44.3675 22.7163 44.1434 22.8447 43.896 22.8851L42.0739 22.7937C42.0739 22.7937 41.5833 22.7197 41.6096 22.4934L41.6403 21.9101L41.2241 21.8884L41.1803 22.946C41.1613 23.0875 41.1722 23.2313 41.2123 23.3684C41.2524 23.5054 41.3207 23.6327 41.413 23.742C41.5054 23.8514 41.6196 23.9404 41.7485 24.0034C41.8773 24.0665 42.018 24.1021 42.1615 24.1081H42.4068C42.3899 24.2877 42.325 24.4595 42.2187 24.6057C42.1124 24.7519 41.9686 24.8671 41.8023 24.9394L40.3043 24.7784V24.8089C40.2518 25.1832 40.1904 25.5531 40.1116 25.9144C40.1064 25.9453 40.0991 25.9758 40.0897 26.0058L42.4111 26.2626L44.1632 26.4628C44.1632 26.5498 44.1325 26.6369 44.115 26.7239H44.2815L44.6275 26.7631C44.7063 26.3757 44.772 25.9797 44.829 25.5836C44.829 25.527 44.829 25.4704 44.8552 25.4139C44.8815 25.3573 44.8552 25.2572 44.8552 25.2572C44.8552 25.2572 44.8552 25.1832 44.8552 25.1484C44.8903 24.8654 44.9209 24.5869 44.9472 24.304C44.9472 24.2474 44.9472 24.1908 44.9472 24.1342V23.9732C44.9472 23.9732 44.9472 23.9732 44.9472 23.9384C44.9472 23.9036 44.9472 23.9123 44.9472 23.8992V23.7991V23.9384V23.712C44.9472 23.5945 44.9472 23.4814 44.9472 23.3682C44.9472 23.0331 44.9735 22.7023 44.9472 22.3758V22.2714V22.1495C44.9472 22.1495 44.9472 21.7143 44.9472 21.5315L45.0173 21.501C45.3677 21.4053 45.3984 22.0146 45.3984 22.0146L45.3283 24.0211L45.832 24.0428L45.9196 21.4314C45.9984 20.2475 45.0918 20.365 45.0918 20.365ZM44.3559 25.2441L42.9893 25.0961L42.7659 25.0657C42.9262 24.7914 43.0037 24.4772 42.9893 24.1604L43.5894 24.1908C43.5894 24.1908 43.8478 24.2692 44.5092 23.6424C44.4742 24.1691 44.4216 24.7001 44.3559 25.2441Z" fill="#096E40"/>
</svg>
