<svg width="193" height="41" viewBox="0 0 193 41" fill="none" xmlns="http://www.w3.org/2000/svg">
<path d="M192.648 15.8367H190.738V17.7618H192.648V15.8367Z" fill="white"/>
<path d="M192.648 38.0729H190.738V39.9981H192.648V38.0729Z" fill="white"/>
<path d="M10.3056 26.8164C9.43376 26.1043 8.01113 25.7483 6.03777 25.7483H0.0392331V26.1263C0.482561 26.0924 0.928022 26.1523 1.34706 26.3021C1.53861 26.4057 1.69161 26.5692 1.783 26.768C1.90801 27.2315 1.95516 27.7129 1.9225 28.1921V37.229C1.95542 37.7054 1.90826 38.1839 1.783 38.6443C1.67939 38.8479 1.51248 39.0115 1.30782 39.1103C0.888981 39.2611 0.443617 39.3224 0 39.2905V39.6685H7.01428V39.2905C6.57096 39.3242 6.12553 39.2644 5.70646 39.1147C5.51451 39.0116 5.36137 38.8479 5.27052 38.6487C5.14543 38.1867 5.09827 37.7068 5.13102 37.229V33.3655C6.24962 33.4027 7.36899 33.3202 8.47032 33.1194C9.35757 32.939 10.1642 32.4769 10.7721 31.8007C11.3299 31.1604 11.6287 30.332 11.6091 29.48C11.6127 28.9643 11.4967 28.4549 11.2704 27.9925C11.044 27.53 10.7137 27.1273 10.3056 26.8164ZM7.54613 31.8403C7.29935 32.0965 7.00057 32.2959 6.67026 32.4249C6.33995 32.5538 5.9859 32.6093 5.63235 32.5875C5.51465 32.5875 5.34463 32.5875 5.1223 32.5875V26.5483H5.55824C5.92363 26.5194 6.29096 26.5682 6.63642 26.6916C6.98187 26.815 7.29775 27.0103 7.56357 27.2647C7.99951 27.7438 8.23492 28.5042 8.23492 29.5371C8.23492 30.57 7.99515 31.3436 7.54613 31.8403Z" fill="white"/>
<path d="M22.1593 26.1263C22.6076 26.1018 23.0554 26.183 23.4671 26.3636C23.6864 26.4885 23.8582 26.6833 23.9554 26.9175C24.1104 27.3386 24.1772 27.7876 24.1516 28.2361V33.9325C24.1516 35.3976 24.0208 36.4335 23.7592 37.04C23.5136 37.6162 23.102 38.1047 22.5778 38.4422C22.0034 38.7941 21.3403 38.9711 20.6684 38.952C20.1013 38.9749 19.5393 38.8363 19.0467 38.552C18.6482 38.3155 18.3281 37.9652 18.1269 37.5455C17.938 37.1411 17.845 36.3163 17.8479 35.0709V28.2537C17.8148 27.7534 17.8575 27.251 17.9743 26.7636C18.0611 26.5617 18.2153 26.3968 18.4102 26.2977C18.76 26.1562 19.1373 26.0976 19.5131 26.1263H19.8706V25.7483H12.7212V26.1263C13.1282 26.0914 13.5377 26.1485 13.92 26.2933C14.1219 26.3914 14.2849 26.5556 14.3821 26.7592C14.5022 27.2475 14.5463 27.7517 14.5129 28.2537V35.0841C14.4694 36.0356 14.658 36.9834 15.0622 37.8444C15.4965 38.5931 16.1561 39.1828 16.9455 39.5278C17.8228 39.8939 18.7697 40.0591 19.718 40.0113C20.9162 40.0781 22.1043 39.7578 23.1097 39.0971C23.8355 38.6234 24.3845 37.9199 24.6703 37.0972C24.9297 35.9354 25.0381 34.7445 24.9929 33.5545V28.28C24.971 27.8813 25.0152 27.4817 25.1237 27.0977C25.2246 26.8034 25.4233 26.5534 25.6861 26.39C25.9807 26.2223 26.3157 26.1401 26.6539 26.1527H26.9372V25.7747H22.1419L22.1593 26.1263Z" fill="white"/>
<path d="M39.3308 33.4049C38.8048 32.9683 37.885 32.5962 36.5713 32.2885C37.7876 31.9808 38.6333 31.5633 39.1172 31.0402C39.5826 30.5614 39.8425 29.9173 39.8409 29.2469C39.8372 28.6015 39.638 27.9727 39.2698 27.4448C38.8853 26.8771 38.3443 26.4355 37.7135 26.1745C37.0567 25.8815 35.9363 25.735 34.3524 25.735H27.7305V26.113C28.1738 26.0799 28.6191 26.1397 29.0383 26.2888C29.2477 26.3837 29.4186 26.5481 29.5222 26.7547C29.6449 27.2186 29.6906 27.6999 29.6573 28.1788V37.2289C29.6908 37.705 29.6452 38.1833 29.5222 38.6442C29.4167 38.8478 29.2484 39.0114 29.0426 39.1101C28.624 39.2618 28.1785 39.3232 27.7348 39.2903V39.6684H34.7535C36.7065 39.6684 38.1974 39.2552 39.2262 38.4289C39.6211 38.1241 39.9399 37.7305 40.1571 37.2795C40.3743 36.8285 40.484 36.3325 40.4774 35.8312C40.4881 35.3645 40.3899 34.9018 40.1908 34.4803C39.9916 34.0589 39.6971 33.6905 39.3308 33.4049ZM32.8658 26.5262C33.5977 26.4801 34.3313 26.5818 35.0238 26.825C35.4477 27.0072 35.8076 27.3134 36.0569 27.7041C36.296 28.174 36.4207 28.6946 36.4207 29.2227C36.4207 29.7509 36.296 30.2714 36.0569 30.7413C35.8019 31.146 35.4353 31.4668 35.002 31.6644C34.3218 31.9223 33.5958 32.0346 32.8702 31.994L32.8658 26.5262ZM36.519 37.4882C36.2837 37.9408 35.9172 38.3103 35.4684 38.5475C35.0043 38.7915 34.4878 38.9168 33.9644 38.9123C33.8139 38.9317 33.6609 38.916 33.5173 38.8665C33.3737 38.8171 33.2432 38.7351 33.1359 38.6269C33.0286 38.5187 32.9473 38.3871 32.8982 38.2423C32.8491 38.0975 32.8336 37.9433 32.8528 37.7915V37.2773V32.8116C33.6446 32.7688 34.4375 32.87 35.1938 33.1104C35.7239 33.3164 36.1653 33.7038 36.4406 34.2049C36.7389 34.7412 36.8894 35.3483 36.8765 35.963C36.8831 36.4933 36.7604 37.0171 36.519 37.4882Z" fill="white"/>
<path d="M53.8869 36.8775L48.9041 25.4495H48.7123L43.7731 36.5698C43.4817 37.3238 43.0838 38.0315 42.5917 38.6708C42.2658 39.0127 41.8334 39.2315 41.3667 39.2905V39.6685H45.9615V39.2905C45.4987 39.2904 45.0396 39.207 44.6057 39.0444C44.4534 38.9574 44.3287 38.8287 44.2461 38.673C44.1635 38.5174 44.1265 38.3413 44.1393 38.1653C44.1626 37.777 44.2588 37.3967 44.4226 37.0445L45.0024 35.6907H49.8806L50.6174 37.4489C50.8048 37.8884 50.9094 38.1565 50.9225 38.218C50.9615 38.3403 50.9821 38.4677 50.9835 38.5961C50.9886 38.688 50.9705 38.7798 50.9309 38.8629C50.8912 38.9459 50.8314 39.0174 50.7569 39.0708C50.4085 39.25 50.0175 39.3276 49.6278 39.2949H49.3531V39.6729H56.0317V39.2949C55.6747 39.2839 55.3314 39.1541 55.0552 38.9257C54.5534 38.3147 54.1583 37.6221 53.8869 36.8775ZM45.3774 34.9479L47.496 30.1525L49.5537 34.9479H45.3774Z" fill="white"/>
<path d="M68.0072 37.2821C67.6985 37.7973 67.261 38.2217 66.7386 38.5129C66.1672 38.791 65.5374 38.9252 64.9033 38.904H63.7524C63.3404 38.9267 62.9272 38.8957 62.523 38.8117C62.4173 38.7759 62.3201 38.7183 62.2376 38.6427C62.155 38.567 62.0889 38.4749 62.0435 38.3722C61.9339 37.927 61.8927 37.4674 61.9214 37.0096V28.131C61.8905 27.6884 61.9272 27.2436 62.0304 26.8123C62.117 26.6037 62.2705 26.4304 62.4664 26.3201C62.7643 26.163 63.0983 26.0887 63.4342 26.1047H64.0357V25.7267H56.6553V26.1047H57.0912C57.4102 26.088 57.7279 26.1578 58.011 26.3069C58.2094 26.4084 58.3699 26.5718 58.4688 26.7728C58.5673 27.2048 58.604 27.6489 58.5778 28.0914V37.2821C58.6063 37.716 58.5696 38.1517 58.4688 38.5744C58.3928 38.7813 58.248 38.9553 58.059 39.0667C57.761 39.2237 57.427 39.298 57.0912 39.282H56.6553V39.6601H68.9183L69.4371 34.7724H69.0011C68.7831 35.6502 68.4488 36.4944 68.0072 37.2821Z" fill="white"/>
<path d="M70.5965 26.1267H71.0325C71.3528 26.1107 71.6717 26.1804 71.9567 26.3289C72.1466 26.4346 72.299 26.5975 72.3926 26.7948C72.4912 27.2268 72.5279 27.6708 72.5016 28.1134V37.2821C72.5302 37.716 72.4934 38.1517 72.3926 38.5744C72.3182 38.7823 72.173 38.9568 71.9828 39.0667C71.6849 39.2237 71.3509 39.298 71.015 39.282H70.5791V39.6601H77.7983V39.282H77.3405C77.0221 39.2972 76.7053 39.229 76.4207 39.0843C76.223 38.9798 76.0628 38.8153 75.963 38.6139C75.8569 38.1831 75.8172 37.7384 75.8453 37.2953V28.131C75.8123 27.6881 75.8506 27.2428 75.9586 26.8123C76.0376 26.6058 76.1835 26.4323 76.3728 26.3201C76.6707 26.163 77.0047 26.0887 77.3405 26.1047H77.7983V25.7267H70.5965V26.1267Z" fill="white"/>
<path d="M95.5506 33.4049C94.7189 32.8412 93.7786 32.4608 92.7911 32.2885C94.003 31.9955 94.8516 31.5794 95.337 31.0402C95.7995 30.5599 96.0576 29.9164 96.0563 29.2469C96.0542 28.602 95.8564 27.9731 95.4895 27.4448C95.1028 26.8775 94.5605 26.4361 93.9289 26.1745C93.2721 25.8815 92.1517 25.735 90.5678 25.735H83.9502V26.113C84.3935 26.0787 84.8391 26.1386 85.258 26.2888C85.4675 26.3837 85.6383 26.5481 85.7419 26.7547C85.8669 27.2182 85.9141 27.6996 85.8814 28.1788V37.2289C85.9143 37.7052 85.8672 38.1837 85.7419 38.6442C85.6383 38.8477 85.4714 39.0114 85.2667 39.1101C84.8479 39.2609 84.4025 39.3223 83.9589 39.2903V39.6684H90.9732C92.932 39.6684 94.4229 39.2552 95.4459 38.4289C95.8416 38.1248 96.1609 37.7314 96.3782 37.2802C96.5955 36.829 96.7047 36.3327 96.6971 35.8312C96.7075 35.3645 96.6092 34.9019 96.41 34.4806C96.2109 34.0592 95.9165 33.6908 95.5506 33.4049ZM89.0812 26.5262C89.8131 26.4794 90.5468 26.5811 91.2391 26.825C91.6635 27.0083 92.0245 27.3142 92.2767 27.7041C92.5323 28.1667 92.656 28.6915 92.6341 29.2205C92.657 29.7522 92.53 30.2794 92.2679 30.7413C92.0145 31.1457 91.6493 31.4666 91.2173 31.6644C90.5358 31.9229 89.8082 32.0352 89.0812 31.994V26.5262ZM92.7388 37.4882C92.5018 37.9411 92.1339 38.3105 91.6838 38.5475C91.2211 38.7911 90.7061 38.9164 90.1841 38.9123C90.0334 38.9236 89.882 38.904 89.739 38.855C89.5959 38.8059 89.4641 38.7282 89.3515 38.6266C89.2514 38.5137 89.1751 38.3814 89.1272 38.2379C89.0792 38.0944 89.0606 37.9425 89.0725 37.7915V37.2773V32.8116C89.8657 32.7688 90.6601 32.8701 91.4178 33.1104C91.9451 33.3174 92.3834 33.7049 92.6559 34.2049C92.9562 34.7404 93.1069 35.348 93.0919 35.963C93.1 36.4929 92.9788 37.0167 92.7388 37.4882Z" fill="white"/>
<path d="M110.102 36.8775L105.123 25.4495H104.927L99.988 36.5698C99.6984 37.3247 99.3003 38.0326 98.8066 38.6708C98.4825 39.0127 98.0514 39.2316 97.5859 39.2905V39.6685H102.176V39.2905C101.715 39.2905 101.257 39.2072 100.825 39.0444C100.671 38.9584 100.546 38.83 100.462 38.6742C100.379 38.5185 100.341 38.3419 100.354 38.1653C100.377 37.7764 100.475 37.3958 100.642 37.0445L101.222 35.6907H106.1L106.832 37.4489C106.947 37.6999 107.049 37.9567 107.137 38.218C107.179 38.3397 107.199 38.4675 107.198 38.5961C107.203 38.6875 107.185 38.7788 107.147 38.8617C107.108 38.9445 107.049 39.0163 106.976 39.0708C106.628 39.25 106.237 39.3276 105.847 39.2949H105.568V39.6729H112.251V39.2949C111.894 39.2849 111.55 39.155 111.274 38.9257C110.771 38.3153 110.374 37.6226 110.102 36.8775ZM101.579 34.9479L103.698 30.1525L105.755 34.9479H101.579Z" fill="white"/>
<path d="M122.495 26.1263C122.794 26.0901 123.097 26.1231 123.381 26.2229C123.665 26.3227 123.922 26.4866 124.134 26.7021C124.374 26.9966 124.492 27.5592 124.492 28.3943V34.3808L117.678 25.7483H112.778V26.1263C113.111 26.1199 113.441 26.1874 113.746 26.3241C114.051 26.51 114.315 26.7568 114.522 27.0493L114.818 27.4185V37.2466C114.879 37.529 114.869 37.8225 114.788 38.0998C114.707 38.3771 114.558 38.6294 114.354 38.8331C114.151 39.0369 113.9 39.1856 113.624 39.2656C113.349 39.3455 113.058 39.3541 112.778 39.2905V39.6685H117.678V39.2905H117.351C116.898 39.2912 116.458 39.1361 116.104 38.8509C115.742 38.5696 115.559 38.029 115.559 37.229V28.3943L124.897 39.9893H125.246V28.3943C125.221 27.9252 125.277 27.4552 125.411 27.0054C125.5 26.7635 125.666 26.558 125.882 26.4208C126.254 26.2519 126.653 26.1522 127.059 26.1263V25.7483H122.495V26.1263Z" fill="white"/>
<path d="M141.093 37.2074L136.236 31.0539L140.278 27.7881C140.875 27.2678 141.51 26.7932 142.178 26.3684C142.536 26.208 142.921 26.1185 143.312 26.1047V25.7267H137.923V26.1047C138.299 26.0933 138.675 26.1422 139.035 26.2497C139.16 26.2974 139.268 26.3813 139.346 26.4908C139.423 26.6003 139.467 26.7306 139.471 26.8651C139.471 27.2123 139.118 27.6782 138.403 28.2628L133.281 32.4472V28.131C133.248 27.6876 133.29 27.242 133.403 26.8123C133.489 26.6058 133.643 26.4353 133.839 26.3289C134.173 26.1731 134.539 26.1022 134.907 26.1223V25.7443H128.015V26.1223H128.472C128.793 26.1056 129.112 26.1754 129.396 26.3245C129.587 26.429 129.74 26.5922 129.832 26.7904C129.931 27.2224 129.968 27.6665 129.941 28.109V37.2821C129.97 37.716 129.933 38.1517 129.832 38.5744C129.758 38.7823 129.613 38.9568 129.423 39.0667C129.125 39.2237 128.791 39.298 128.455 39.282H127.997V39.6601H134.972V39.282C134.593 39.3075 134.214 39.2427 133.865 39.093C133.666 38.9994 133.502 38.8458 133.394 38.6535C133.282 38.2117 133.241 37.7547 133.272 37.2997V33.4889L133.782 33.0494L136.947 37.0624C137.575 37.8579 137.884 38.381 137.884 38.6887C137.886 38.7633 137.869 38.8371 137.835 38.9033C137.8 38.9694 137.75 39.0256 137.688 39.0667C137.418 39.2061 137.119 39.2798 136.816 39.282V39.6601H144.005V39.282C143.601 39.2809 143.206 39.1668 142.863 38.9524C142.185 38.4688 141.587 37.8798 141.093 37.2074Z" fill="white"/>
<path d="M159.799 26.8164C158.927 26.1043 157.515 25.7483 155.535 25.7483H149.515V26.1263C149.958 26.0932 150.404 26.153 150.823 26.3021C151.034 26.3961 151.206 26.5607 151.311 26.768C151.434 27.2319 151.48 27.7132 151.446 28.1921V37.229C151.48 37.7051 151.434 38.1835 151.311 38.6443C151.206 38.848 151.037 39.0115 150.832 39.1103C150.413 39.2614 149.967 39.3228 149.524 39.2905V39.6685H156.542V39.2905C156.099 39.3235 155.654 39.2636 155.235 39.1147C155.023 39.0212 154.851 38.8565 154.746 38.6487C154.621 38.1867 154.574 37.7068 154.607 37.229V33.3655C155.727 33.4025 156.848 33.32 157.951 33.1194C158.837 32.9369 159.643 32.4752 160.252 31.8007C160.807 31.1586 161.104 30.3311 161.085 29.48C161.091 28.9658 160.977 28.4574 160.754 27.995C160.531 27.5327 160.204 27.1291 159.799 26.8164ZM157.039 31.8403C156.793 32.097 156.494 32.2967 156.164 32.4257C155.834 32.5547 155.479 32.6099 155.126 32.5875C155.012 32.5875 154.842 32.5875 154.616 32.5875V26.5483H155.052C155.417 26.5194 155.784 26.5682 156.13 26.6916C156.475 26.815 156.791 27.0103 157.057 27.2647C157.493 27.7438 157.733 28.5042 157.733 29.5371C157.733 30.57 157.488 31.3436 157.039 31.8403Z" fill="white"/>
<path d="M173.462 37.2821C173.155 37.7991 172.717 38.2241 172.193 38.5129C171.623 38.7913 170.995 38.9255 170.362 38.904H169.211C168.798 38.9262 168.383 38.8952 167.978 38.8117C167.873 38.7747 167.776 38.7167 167.693 38.6412C167.611 38.5657 167.545 38.4742 167.498 38.3722C167.393 37.9263 167.353 37.4672 167.38 37.0096V28.131C167.349 27.6884 167.386 27.2436 167.489 26.8123C167.575 26.6028 167.728 26.429 167.925 26.3201C168.223 26.163 168.557 26.0887 168.893 26.1047H169.495V25.7267H162.114V26.1047H162.572C162.891 26.088 163.209 26.1578 163.492 26.3069C163.683 26.4114 163.835 26.5747 163.928 26.7728C164.029 27.2045 164.067 27.6486 164.041 28.0914V37.2821C164.08 37.7236 164.051 38.1685 163.954 38.6008C163.88 38.8074 163.736 38.9815 163.549 39.093C163.251 39.2501 162.917 39.3244 162.581 39.3084H162.123V39.6864H174.373L174.896 34.7988H174.46C174.241 35.6684 173.905 36.5038 173.462 37.2821Z" fill="white"/>
<path d="M188.851 26.4955C188.778 26.5713 188.69 26.6314 188.594 26.6722C188.497 26.713 188.393 26.7336 188.288 26.7329C187.877 26.6632 187.475 26.5406 187.094 26.368C186.111 25.9732 185.065 25.7631 184.008 25.7483C182.705 25.7537 181.426 26.0925 180.289 26.7329C179.13 27.3635 178.164 28.3012 177.495 29.4448C176.82 30.558 176.463 31.8369 176.461 33.1413C176.461 34.3659 176.783 35.5687 177.394 36.6269C178.009 37.7106 178.93 38.5846 180.041 39.1366C181.261 39.7387 182.606 40.04 183.964 40.0157C184.969 40.0368 185.968 39.8544 186.902 39.4795C187.817 39.06 188.641 38.4625 189.326 37.7213V36.5434C188.694 37.3237 187.926 37.9806 187.059 38.4817C186.315 38.8642 185.488 39.0559 184.653 39.0399C183.729 39.082 182.817 38.8112 182.063 38.2707C181.351 37.6889 180.838 36.8952 180.598 36.0027C180.273 34.923 180.114 33.7993 180.128 32.671C180.112 31.5151 180.33 30.3681 180.769 29.2998C181.097 28.5164 181.648 27.8483 182.351 27.379C183.049 26.8968 183.876 26.6407 184.723 26.645C185.733 26.6375 186.714 26.9875 187.495 27.6339C188.354 28.3613 188.942 29.3607 189.165 30.4689H189.566V25.7483H189.165C189.146 26.0258 189.036 26.289 188.851 26.4955Z" fill="white"/>
<path d="M15.1633 19.142H7.47332C7.47332 19.142 7.54743 22.355 4.09913 20.0211V17.9992H11.8109V4.51418H20.3641V6.27233H13.607V15.2213C13.607 15.2213 13.6768 17.7355 16.5801 17.9465H24.4968V4.51418H26.7855V17.8805H30.5564V4.52736H43.6695V6.34705H32.6794V15.7136C32.6794 15.7136 32.7535 17.5245 35.1076 17.674H38.6474V16.7773C38.6474 16.7773 36.6029 17.1245 36.5288 15.5862V7.55139H38.6431V12.5138H42.2527V7.83269H43.8221V17.9025H48.2948V4.38232H50.1737V17.8322H54.0187V2.88789C54.0187 2.88789 54.4154 0.250656 50.4919 0.0133057H41.8516V1.67916H48.5302C48.5302 1.67916 50.6489 1.67916 50.1737 2.87031L7.53435 2.84393V4.03508C7.53435 4.03508 6.43142 4.21969 5.01897 2.90986H0.0405273V11.2963H4.58739L6.95019 9.68315L7.49947 9.75348V16.6059H1.34835C1.34835 16.6059 0.406718 21.2166 2.65617 21.4408H11.8414V20.1793H15.1328L15.1633 19.142ZM20.3292 16.6235C20.3292 16.6235 19.4573 17.463 17.7136 15.8367V8.60189C17.7136 8.60189 17.5435 7.13383 20.3292 7.55139V16.6235ZM7.39049 7.52941C5.3808 9.46338 4.02939 9.2524 4.02939 9.2524V4.41748C5.22181 4.3561 6.40164 4.68782 7.39049 5.36249V7.52941Z" fill="white"/>
<path d="M90.9425 13.8852V17.7575H94.2993V14.1489C94.2469 11.9512 91.4787 11.6304 91.4787 11.6304H85.9205L85.8682 12.7776H89.6303C91.0646 12.782 90.9425 13.8852 90.9425 13.8852Z" fill="white"/>
<path d="M88.0001 9.77515H94.4825V5.79293C94.4825 3.32712 91.7055 2.85242 91.7055 2.85242H87.2284C86.9206 2.88622 86.6329 3.02332 86.4115 3.24171C86.1902 3.46011 86.048 3.74714 86.0078 4.05675V8.2016C86.2912 9.71801 88.0001 9.77515 88.0001 9.77515ZM89.0027 4.75562H91.4135V7.79283C91.4135 7.79283 90.7726 9.31363 88.9504 7.58185L89.0027 4.75562Z" fill="white"/>
<path d="M99.0628 17.8456H106.356V8.48779C106.345 8.39028 106.353 8.29141 106.382 8.19748C106.41 8.10355 106.458 8.01661 106.521 7.94219C106.585 7.86777 106.663 7.80751 106.751 7.76523C106.839 7.72295 106.934 7.69959 107.032 7.69662H108.597V13.2128C108.71 14.0919 107.533 14.2106 107.533 14.2106V15.1512H110.332C112.272 14.9446 112.159 13.3667 112.159 13.3667V6.13626H106.43V4.53194H112.145V2.84851H95.8936V4.53194H102.55V6.14505H95.8936V7.70541V14.8655C95.8892 17.3972 99.0628 17.8456 99.0628 17.8456ZM99.9347 7.70541H102.511V16.461H100.828C100.605 16.4387 100.396 16.339 100.237 16.1787C100.078 16.0184 99.9786 15.8075 99.9565 15.5819L99.9347 7.70541Z" fill="white"/>
<path d="M84.7121 17.7044V2.85242H61.8252V4.53145H69.0139V5.74458H61.8339V15.3353C61.8339 17.6253 65.0076 17.8583 65.0076 17.8583H73.8397V14.9793V4.53145H75.6227C75.5837 5.0014 75.3939 5.44575 75.0822 5.79732C74.2103 6.63684 75.6053 7.11594 75.6053 7.11594V16.3858C74.6636 17.0715 74.9557 17.6473 74.9557 17.6473C79.5462 18.6406 79.1931 15.6518 79.1931 15.6518V8.47411C79.132 6.7731 78.3212 6.32477 78.3212 6.32477C77.6106 5.44569 78.4868 4.71606 78.7571 4.53145H80.9761V17.7176H84.7382L84.7121 17.7044ZM69.1098 16.3858H67.366C67.366 16.3858 66.7818 16.4869 66.5421 15.1243L66.6685 7.57745H69.1316L69.1098 16.3858Z" fill="white"/>
<path d="M120.982 17.8365H124.832V4.53604V2.857C124.814 1.59992 126.462 1.67904 126.462 1.67904H133.141V0H124.5C120.577 0.215374 120.974 2.87458 120.974 2.87458L120.982 17.8365Z" fill="white"/>
<path d="M126.367 2.91005V11.2964H130.918L133.281 9.68333L133.83 9.75366V16.6061V18.0038H138.146V4.51876H139.341V2.84851H133.874V4.03526C133.874 4.03526 132.771 4.22866 131.363 2.91444L126.367 2.91005ZM133.726 5.37586V7.5252C131.716 9.46356 130.365 9.25258 130.365 9.25258V4.41766C131.559 4.35853 132.739 4.69506 133.726 5.37586Z" fill="white"/>
<path d="M143.569 10.7558H146.73V9.85036C146.73 9.85036 145.069 10.1932 144.986 8.65921V4.03967H147.824V16.8918H143.974C143.75 16.8703 143.541 16.7708 143.382 16.6103C143.223 16.4499 143.124 16.2386 143.103 16.0127V13.3755H139.048V15.305C139.048 17.8148 142.218 18.2675 142.218 18.2675H151.669V2.84852H142.867C142.641 2.84794 142.417 2.89231 142.209 2.97908C142 3.06585 141.81 3.19332 141.65 3.35419C141.49 3.51506 141.363 3.70616 141.276 3.91656C141.19 4.12695 141.145 4.35251 141.145 4.5803V8.79987C141.145 8.79987 141.215 10.6064 143.569 10.7558Z" fill="white"/>
<path d="M175.148 1.67904H181.827V0H173.186C169.472 0.202188 169.629 2.59767 169.655 2.84821H152.854V4.52724H163.848V6.34254H152.854V15.7135C152.854 15.7135 152.932 17.52 155.287 17.6694H158.822V16.764C158.822 16.764 156.786 17.1068 156.703 15.5684V7.53369H158.818V12.4961H162.427V7.83257H163.997V17.8892H168.465V4.37341H169.651V17.8365H173.5V4.53604H175.375C175.811 4.79536 177.21 5.73158 177.358 7.01943V13.0103C177.358 13.0103 177.184 14.641 176.425 14.5883H174.477V15.9508H178.012C178.012 15.9508 181.713 16.1091 181.713 12.5356V10.5357C182.873 10.4918 183.81 11.3577 184.468 12.2587V17.7574H188.645V4.53164H189.543V2.84821H173.5C173.073 1.67904 175.148 1.67904 175.148 1.67904ZM179.839 4.52724H184.482V9.02372C183.616 8.63555 182.664 8.48396 181.722 8.58418V7.85455C181.722 7.85455 181.962 6.97547 179.603 4.80855L179.839 4.52724Z" fill="white"/>
</svg>
