<svg width="46" height="46" viewBox="0 0 46 46" fill="none" xmlns="http://www.w3.org/2000/svg">
<path d="M22.6767 15.076C22.5835 15.0969 22.4888 15.1102 22.3936 15.1155V15.265C22.5165 15.2713 22.6392 15.2472 22.7507 15.1946L22.9947 14.8298C23.0342 14.7834 23.0613 14.7275 23.0735 14.6675C23.0857 14.6075 23.0826 14.5454 23.0644 14.487C23.0315 14.4309 22.9868 14.3829 22.9333 14.3464C22.8798 14.3099 22.8189 14.2858 22.7551 14.276L22.7333 14.421C22.7769 14.421 22.9032 14.465 22.9381 14.5441C22.9446 14.5793 22.9429 14.6155 22.9331 14.6498C22.9232 14.6842 22.9055 14.7157 22.8814 14.7419L22.6767 15.076Z" fill="white"/>
<path d="M22.3667 14.8431H22.4974H22.6586H22.7152V14.7815C22.7207 14.7377 22.7111 14.6933 22.6881 14.6558C22.6652 14.6182 22.6301 14.5897 22.5889 14.575H22.5366L22.5061 14.6233L22.4233 14.7596L22.3667 14.8431Z" fill="white"/>
<path d="M22.4135 13.8761L22.5006 13.7662C22.2206 13.6704 21.9236 13.6359 21.6294 13.6651V13.8146C21.8923 13.7908 22.1574 13.8116 22.4135 13.8761Z" fill="white"/>
<path d="M22.3095 14.1486C22.3095 14.1486 22.4968 13.8541 21.6343 14.0167L21.6604 14.4563C21.6604 14.4563 22.1614 14.4695 22.3095 14.1486Z" fill="white"/>
<path d="M32.1102 21.0406C31.5408 20.8187 30.9097 20.8187 30.3403 21.0406C29.9166 21.1691 29.4698 21.2006 29.0325 21.1329L29.002 21.2824C29.4724 21.36 29.9544 21.3269 30.41 21.1857C30.9438 20.9825 31.5328 20.9825 32.0666 21.1857C32.0666 21.1857 32.0666 21.1857 32.0928 21.1857L32.1712 21.0582C32.1507 21.0454 32.1288 21.0351 32.1058 21.0274L32.1102 21.0406Z" fill="white"/>
<path d="M30.593 21.7746C30.1756 21.9308 29.7277 21.9865 29.2852 21.9372V22.0866C29.747 22.1413 30.2152 22.0825 30.6496 21.9152C30.7792 21.8648 30.9221 21.8619 31.0535 21.9069C31.185 21.9519 31.2966 22.0419 31.369 22.1613L31.491 22.0778C31.4 21.9296 31.2603 21.8181 31.0963 21.7627C30.9323 21.7073 30.7542 21.7115 30.593 21.7746Z" fill="white"/>
<path d="M16.39 29.1154C16.39 29.1154 15.056 29.3615 15.6446 30.3725L16.1677 30.7549L20.3222 30.2362C20.3222 30.2362 20.6579 29.9329 20.3222 29.0319C19.8045 28.8559 19.3063 28.6261 18.8356 28.3462L17.9202 28.4077C17.5602 28.4031 17.2007 28.437 16.8478 28.5088L16.8129 27.9067C16.9857 27.7548 17.1944 27.6503 17.4188 27.6034C17.534 27.5768 17.6364 27.5103 17.708 27.4156C17.7797 27.3208 17.8162 27.2038 17.8112 27.0847C17.8112 27.0847 17.8722 26.843 17.6237 26.8869C17.6237 26.8869 17.6586 27.0891 17.1093 27.0276C17.1093 27.0276 15.7666 27.0276 16.3203 27.999L16.39 29.1154ZM16.1502 29.4978L16.1938 29.6604L16.002 29.6253V29.5198L16.1502 29.4978ZM20.2394 30.0033L16.1895 30.4692L15.7884 30.1088C15.7884 30.1088 15.6271 29.7351 15.8843 29.7879C15.9763 29.8819 16.0755 29.9686 16.1808 30.0472L20.1958 29.656L20.2394 30.0033ZM17.3055 29.0978L18.2297 29.0407L18.3169 29.6077L17.3752 29.6736L17.3055 29.0978ZM19.8252 29.0495L19.8645 29.4319L19.4765 29.4978L19.4416 29.0099L19.8252 29.0495ZM19.2716 29.489L18.561 29.5549L18.5305 29.0275L19.2236 29.0099L19.2716 29.489ZM17.0919 28.6319L17.6673 28.5704L17.7545 28.6275H18.343L18.5 28.544L18.7572 28.4825C18.8842 28.5528 19.0052 28.6337 19.119 28.7242L16.9393 28.9616V28.8033C16.9409 28.7624 16.9565 28.7234 16.9836 28.6929C17.0106 28.6624 17.0474 28.6424 17.0875 28.6363L17.0919 28.6319ZM17.1311 29.2473V29.6868L16.3857 29.7527L16.3508 29.445C16.3508 29.445 16.499 29.3615 16.4728 29.278L17.1311 29.2473ZM16.5731 28.0869H16.7475L16.7824 28.6934L16.608 28.7154L16.5731 28.0869ZM16.5731 27.3221L17.506 27.1814V27.3704C17.2087 27.4314 16.9278 27.5558 16.6821 27.7352C16.5862 27.8495 16.4554 27.7352 16.4554 27.7352C16.416 27.6686 16.4022 27.5898 16.4167 27.5136C16.4312 27.4374 16.4729 27.3693 16.5339 27.3221H16.5731Z" fill="white"/>
<path d="M20.8886 26.8558C21.0019 26.8558 21.0847 26.7152 21.0759 26.5569C21.0672 26.3987 20.967 26.2756 20.8538 26.28C20.79 26.2976 20.7348 26.3382 20.6986 26.3941C20.6625 26.45 20.648 26.5173 20.6578 26.5833C20.6708 26.7415 20.7754 26.8602 20.8886 26.8558Z" fill="white"/>
<path d="M22.5151 7.47205L18.0947 16.487L8.21191 17.9331L15.3657 24.9657L13.6743 34.8817L22.5151 30.2006L31.356 34.8817L29.6515 24.9613L36.8053 17.9287L26.9356 16.487L22.5151 7.47205ZM28.9496 24.4954H26.9486C27.1424 24.3106 27.2915 24.0836 27.3846 23.8317C27.3846 23.8317 27.5633 23.0801 27.2189 23.0317C27.1019 23.2887 26.9694 23.5382 26.8222 23.7789C26.7765 24.0258 26.7019 24.2663 26.5999 24.4954H26.164C26.1291 24.3679 26.1116 24.0558 26.565 23.524C26.565 23.524 26.9225 23.2998 26.5171 22.2405L26.4909 22.2669C26.4881 22.3945 26.4579 22.52 26.4022 22.6346C26.3464 22.7492 26.2666 22.8502 26.1683 22.9306C25.9362 23.4171 25.8369 23.9573 25.8806 24.4954H25.449L25.3793 24.0075C25.4961 23.3658 25.7996 22.7737 26.2511 22.3065C26.356 22.1893 26.4295 22.047 26.4645 21.8932C26.4996 21.7393 26.4952 21.579 26.4517 21.4274C26.5531 21.3844 26.6346 21.3043 26.6798 21.2032C26.7251 21.1021 26.7308 20.9875 26.6958 20.8824C26.6999 20.8101 26.6862 20.738 26.6559 20.6724C26.6257 20.6067 26.5799 20.5497 26.5225 20.5062C26.4652 20.4627 26.3981 20.4342 26.3271 20.4231C26.2562 20.4121 26.1837 20.4188 26.116 20.4428C26.116 20.4428 26.1509 20.1615 26.3035 20.0648L26.2511 19.4099C26.2511 19.4099 25.946 19.3132 26.2511 19.0451C26.2663 18.9224 26.2517 18.7979 26.2084 18.6822C26.1651 18.5666 26.0945 18.4633 26.0027 18.3814C26.0027 18.3814 25.7847 18.2275 25.619 18.6935C25.619 18.6935 25.51 19.133 25.6626 19.2297C25.6626 19.2297 25.776 19.6033 25.619 19.5857L25.6844 20.1747C25.6844 20.1747 26.0027 20.2055 25.6844 20.3549L25.3313 20.6055C25.2854 20.2855 25.205 19.9716 25.0915 19.6692C25.0915 19.6692 24.8518 19.4275 24.6861 19.9198C24.6861 19.9198 24.4899 20.0253 24.4551 19.8714C24.5435 19.6762 24.5662 19.4571 24.5198 19.2477C24.4734 19.0382 24.3603 18.8498 24.1979 18.711C24.1979 18.711 23.8709 18.2232 23.7619 18.8737C23.7261 19.0829 23.7361 19.2975 23.791 19.5025C23.846 19.7075 23.9447 19.8979 24.0802 20.0604C24.0802 20.0604 24.3243 20.1044 24.054 20.3593V20.7681H23.9276C23.7697 20.5161 23.6327 20.2515 23.5178 19.9769L23.3739 20.0604C23.3739 20.0604 23.0601 23.0976 25.0567 24.3371L25.0959 24.5173H22.9598V17.0452H26.5432L28.9496 24.4954ZM25.9547 26.2535C25.4562 26.2797 24.9695 26.4163 24.5292 26.6535C24.3885 26.8309 24.2136 26.9777 24.015 27.085C23.8164 27.1923 23.5983 27.2578 23.3739 27.2776V27.5414L21.6258 27.6908C21.5459 27.5839 21.432 27.5079 21.3032 27.4754C21.3032 27.4754 22.1184 26.5964 21.4035 25.9371C21.396 25.9262 21.391 25.9138 21.3889 25.9007C21.3869 25.8876 21.3878 25.8742 21.3915 25.8616C21.3953 25.8489 21.4019 25.8372 21.4107 25.8275C21.4196 25.8177 21.4305 25.8101 21.4427 25.8052C22.132 25.7133 22.8325 25.7581 23.5047 25.9371C23.9782 26.0755 24.4783 26.0938 24.9605 25.9903C25.4427 25.8867 25.8921 25.6646 26.2686 25.3437C26.2686 25.3437 25.5231 26.0689 25.9547 26.2535ZM20.0608 26.2623C20.3825 26.0832 20.7272 25.9501 21.0852 25.8667C21.2366 25.971 21.345 26.1272 21.3904 26.3063V26.948C21.3904 26.948 21.2858 27.4535 20.8542 27.4315C20.5375 27.2867 20.2437 27.0956 19.9823 26.8645C19.9823 26.8645 20.1175 26.8117 20.0608 26.2623ZM26.164 25.8887L26.4996 25.5019C26.6727 25.3764 26.8072 25.2043 26.8876 25.0052H28.7142L26.6478 26.5172C26.0506 26.1612 26.1378 25.8887 26.1378 25.8887H26.164ZM27.2538 23.5108C27.2576 23.6344 27.2354 23.7574 27.1889 23.8717C27.1423 23.9861 27.0723 24.0893 26.9835 24.1745C26.9333 24.0533 26.9305 23.9173 26.9758 23.7941C27.0211 23.6709 27.1111 23.5697 27.2276 23.5108H27.2538ZM26.0855 23.9196C26.1143 23.5545 26.2684 23.211 26.5214 22.9482C26.5315 23.1362 26.4945 23.3238 26.4137 23.4935C26.333 23.6633 26.2111 23.8098 26.0593 23.9196H26.0855ZM24.4202 20.1527C24.5766 20.331 24.6936 20.5407 24.7635 20.7681C24.8334 20.9954 24.8546 21.2351 24.8256 21.4713C24.8256 21.4713 24.7515 21.6779 24.3374 21.2032C24.2635 21.035 24.2325 20.8508 24.2469 20.6674C24.2614 20.484 24.3209 20.3071 24.4202 20.1527ZM23.9842 19.5637C23.9319 19.2912 23.884 18.8385 23.9842 18.8253C24.0988 18.9663 24.1831 19.1297 24.2319 19.3052C24.2807 19.4808 24.2928 19.6646 24.2676 19.8451C24.1957 19.8376 24.1285 19.8056 24.077 19.7545C24.0255 19.7034 23.9928 19.6361 23.9842 19.5637ZM26.164 21.234L26.1988 21.801C25.8588 22.5834 25.6452 22.6317 25.6452 22.6317V21.7834C25.8265 21.586 25.9646 21.3524 26.0506 21.0977C26.1247 21.0977 26.1857 21.234 26.1857 21.234H26.164ZM26.1116 20.7945L26.164 20.6582C26.164 20.6582 26.5214 20.5131 26.5127 21.0977C26.5091 21.1181 26.4997 21.1369 26.4856 21.1519C26.4715 21.1669 26.4533 21.1774 26.4334 21.1821C26.4134 21.1868 26.3925 21.1855 26.3733 21.1783C26.3541 21.1711 26.3374 21.1584 26.3252 21.1417C26.3074 21.0056 26.2388 20.8814 26.1334 20.7945H26.1116ZM25.8457 20.1044C25.7498 19.9681 25.8457 19.533 25.8457 19.533C25.9547 19.467 26.0114 19.533 26.0114 19.533C26.286 20.0516 25.8675 20.1044 25.8675 20.1044H25.8457ZM25.7629 19.0495C25.7629 19.0495 25.7062 18.6759 25.9067 18.6407L25.946 19.111C25.946 19.111 25.7934 19.3396 25.7847 19.0495H25.7629ZM25.8457 20.5263L25.8937 20.9659C25.7968 21.053 25.7234 21.1634 25.6801 21.2867C25.644 21.2175 25.5869 21.1617 25.517 21.1277C25.4472 21.0936 25.3683 21.0831 25.2921 21.0977C25.4027 20.8389 25.6092 20.6339 25.8675 20.5263H25.8457ZM25.2921 21.3219L25.3269 21.4757L25.2049 21.5373V21.423L25.2921 21.3219ZM25.5231 21.568L25.497 22.0076L25.0218 22.0383L25.0567 21.8933C25.3487 21.9329 25.5449 21.568 25.5449 21.568H25.5231ZM24.9477 21.2384L24.8692 20.6934C24.8692 20.6934 24.8431 20.3329 24.6992 20.3549V20.1835C24.6992 20.1835 24.83 19.8275 25.0087 20.2143L25.0741 21.2604L24.9477 21.2384ZM24.6774 21.8186C24.6774 21.8186 24.9172 21.9241 24.939 22.6317C24.939 22.6317 23.6834 22.2713 23.5614 20.5483C23.811 21.0737 24.2062 21.5149 24.6992 21.8186H24.6774ZM25.0305 23.3438L25.1133 24.0514C24.7428 23.8437 24.4224 23.5559 24.1751 23.2086C23.9279 22.8614 23.76 22.4632 23.6834 22.0427C23.6834 22.0427 24.8561 22.6537 25.0523 23.3438H25.0305ZM25.0915 22.2757L25.4795 22.223L25.449 22.4251C25.449 22.4251 25.2834 22.5043 25.2746 22.6317H25.1177L25.0915 22.2757ZM25.2354 22.7812L25.4708 22.7152V23.0932C25.3803 23.1829 25.322 23.3005 25.3051 23.4273L25.1787 23.4932L25.1177 22.8823L25.2354 22.7812ZM21.3686 15.1024C21.3461 14.957 21.2802 14.822 21.1798 14.7152C21.0793 14.6084 20.9491 14.535 20.8062 14.5047C20.9847 14.3724 21.1211 14.1905 21.1985 13.9813C21.276 13.772 21.2911 13.5445 21.2422 13.3267C21.2213 13.2525 21.2172 13.1745 21.23 13.0985C21.2428 13.0225 21.2723 12.9503 21.3163 12.8872C21.4558 12.6894 21.8176 12.4476 22.7549 12.474C23.0435 12.571 23.2978 12.7507 23.4868 12.9911C23.6757 13.2316 23.791 13.5223 23.8186 13.8278C23.8181 14.0552 23.7947 14.282 23.7488 14.5047C23.7488 14.5662 23.7488 14.6058 23.7488 14.6321C23.5851 14.8928 23.4913 15.1919 23.4768 15.5002C23.4623 15.8084 23.5275 16.1151 23.666 16.3903L22.5849 16.465H22.0138C22.0069 16.278 21.948 16.0968 21.8438 15.9419C21.7942 15.8788 21.7322 15.8267 21.6616 15.7889C21.5911 15.7511 21.5136 15.7284 21.434 15.7222H21.4078C21.3512 15.7222 21.2117 15.7222 21.1768 15.665C21.1419 15.6079 21.1768 15.4453 21.3599 15.164L21.3817 15.1288L21.3686 15.1024ZM22.5151 8.79066L26.2773 16.4738H23.9842C23.8255 16.223 23.7412 15.9318 23.7412 15.6343C23.7412 15.3368 23.8255 15.0455 23.9842 14.7948C23.9959 14.7576 23.9959 14.7177 23.9842 14.6805C23.9842 14.6805 23.9842 14.6101 23.9842 14.5574C24.0252 14.3105 24.0441 14.0605 24.0409 13.8102C24.0118 13.4554 23.8809 13.1169 23.6642 12.8359C23.4474 12.5549 23.1542 12.3436 22.8203 12.2279H22.7941H22.768C21.8961 12.2279 21.3424 12.3905 21.0896 12.7553C21.0235 12.8516 20.9795 12.9615 20.9606 13.077C20.9418 13.1925 20.9486 13.3108 20.9806 13.4234C21.0138 13.5956 20.9965 13.7739 20.9306 13.9363C20.8648 14.0987 20.7534 14.2382 20.6101 14.3376C20.5813 14.3664 20.5602 14.402 20.5487 14.4412C20.5373 14.4804 20.5359 14.5219 20.5447 14.5618C20.5626 14.6095 20.5906 14.6526 20.6268 14.6883C20.6629 14.724 20.7063 14.7513 20.7539 14.7684C20.8423 14.784 20.925 14.8232 20.9932 14.8819C21.0615 14.9407 21.1128 15.0168 21.1419 15.1024C20.9414 15.4233 20.8847 15.665 20.985 15.8365C21.0345 15.9041 21.101 15.9572 21.1776 15.9904C21.2542 16.0236 21.3382 16.0357 21.4209 16.0255C21.4655 16.0271 21.5091 16.0391 21.5484 16.0605C21.5877 16.0818 21.6217 16.1119 21.6476 16.1485C21.7181 16.2523 21.7575 16.3744 21.761 16.5002H18.753L22.5151 8.79066ZM18.4914 17.032H22.4585V24.5042H20.7147H20.9763C21.9048 23.9811 21.6694 22.8075 21.6694 22.8075C21.238 23.0544 20.9086 23.4489 20.7409 23.9196C20.6493 24.5965 20.3877 24.1525 20.3877 24.1525L20.4095 23.4185C20.4095 23.1724 20.8106 22.8691 20.8106 22.8691C20.9596 22.8355 21.1001 22.771 21.223 22.6797C21.3459 22.5883 21.4485 22.4722 21.5244 22.3386C21.6003 22.205 21.6477 22.0569 21.6637 21.9038C21.6797 21.7507 21.6638 21.5959 21.6171 21.4494C20.6449 21.7614 20.658 22.4955 20.658 22.4955C20.488 23.0273 20.3703 22.724 20.3703 22.724L20.3223 21.9197C20.3223 21.7439 20.7191 21.3702 20.7191 21.3702C21.9702 21.1109 21.5255 19.8451 21.5255 19.8451C21.2841 19.9699 21.073 20.1468 20.9072 20.3634C20.7414 20.5799 20.6251 20.8307 20.5665 21.0977C20.2395 21.7131 20.1872 21.3702 20.1872 21.3702L20.209 20.6318C21.543 19.6033 21.2204 18.7154 21.2204 18.7154C20.2439 19.0319 20.2875 20.2187 20.2875 20.2187L20.1305 20.3373L20.0826 19.6033L20.1305 19.322C20.1828 17.9199 19.603 18.1704 19.603 18.1704C19.1366 19.322 19.869 19.8231 19.869 19.8231L19.978 20.6274C19.978 20.6274 19.7469 21.1329 19.603 20.3725C19.5942 20.3421 19.5869 20.3113 19.5812 20.2802C19.5054 20.0639 19.3771 19.8702 19.2081 19.7167C19.0391 19.5632 18.8347 19.4547 18.6135 19.4011C18.5219 20.667 19.3284 20.8208 19.3284 20.8208C19.5735 20.8697 19.8001 20.9869 19.9823 21.1593L20.0608 22.223C19.8036 22.3065 19.6248 21.6911 19.6248 21.6911C19.5001 21.4604 19.3205 21.2645 19.1021 21.121C18.8837 20.9775 18.6334 20.891 18.3737 20.8692C18.4565 22.2273 19.3982 22.3724 19.3982 22.3724C19.6292 22.324 20.1175 22.7152 20.1175 22.7152L20.161 23.9635C19.6379 24.1393 19.5377 23.5504 19.5377 23.5504C19.3485 23.2354 19.0894 22.969 18.7807 22.7722C18.4721 22.5755 18.1223 22.4536 17.759 22.4163C17.759 24.0251 19.6641 24.1745 19.6641 24.1745C20.039 24.0426 19.991 24.3503 19.9474 24.4998H16.085L18.4914 17.032ZM9.48486 18.3506L17.8811 17.1155L16.6866 20.8208L16.5209 19.6341L16.3422 19.4319L16.3073 18.8033L16.0981 18.711C16.0981 18.711 15.8888 18.5528 16.5776 18.3638C16.5776 18.3638 17.2272 18.6407 17.2882 18.0034C17.2882 18.0034 17.3362 17.6518 17.0833 17.8759C17.0833 17.8759 17.1225 18.0517 16.4207 17.9902C16.4207 17.9902 15.7406 18.2407 15.8365 19.3616L15.5139 19.3835L14.8862 19.3396L14.799 19.0319C14.799 19.0319 14.5592 18.8341 15.0169 18.7022C15.0169 18.7022 15.6839 18.7946 15.5837 18.1704C15.5837 18.1704 15.4703 18.5308 14.9908 18.3199C14.9908 18.3199 14.2933 18.3946 14.3979 19.4758H13.6001L13.6263 19.9154L12.3664 19.8582L13.3909 21.3615L16.6692 20.9791L15.5706 24.3283L9.48486 18.3506ZM14.0535 19.8319L15.1608 19.933L15.7493 20.8692L14.7205 20.9043L14.0535 19.8319ZM14.3194 20.9659L13.4955 21.023L12.8678 20.0165L13.8443 20.1923L14.3194 20.9659ZM14.5505 19.2693L14.7161 19.2253L14.8339 19.4978L14.6072 19.5506L14.5505 19.2693ZM15.4224 19.7088L16.364 19.8934L16.5209 20.8208L15.9499 20.7593L15.4224 19.7088ZM16.0022 19.3923V19.0407L16.1678 18.9967V19.4143L16.0022 19.3923ZM14.4633 33.796L15.8975 25.3525L22.0007 29.8094L14.4633 33.796ZM16.3553 25.0052H26.2468C25.8643 25.336 25.4065 25.5661 24.9144 25.675C24.4222 25.7839 23.9109 25.7682 23.4262 25.6294V25.2865L21.2465 25.5722L20.5926 25.7085C20.4742 25.8289 20.3317 25.9225 20.1746 25.9832C20.0175 26.0438 19.8494 26.07 19.6815 26.0601C19.592 26.1731 19.5433 26.3133 19.5433 26.4579C19.5433 26.6025 19.592 26.7427 19.6815 26.8557C20.9893 28.4073 23.6747 27.8183 23.6747 27.8183C24.0322 27.8446 23.8753 27.6513 23.8753 27.6513C23.6922 27.6205 23.6965 27.4007 23.6965 27.4007L24.7995 27.1326C25.2354 27.0535 24.9782 26.6931 24.9782 26.6931L26.164 26.5304C26.2408 26.585 26.3123 26.6468 26.3776 26.715L22.6023 29.4753L16.3553 25.0052ZM19.9082 26.4337C19.9082 26.5172 19.9082 26.5876 19.8733 26.5876C19.8385 26.5876 19.8254 26.5216 19.8167 26.4425C19.8079 26.3634 19.8167 26.2931 19.8559 26.2931C19.8951 26.2931 19.8995 26.3722 19.9082 26.4337ZM25.9155 28.4556C25.8677 28.5307 25.8036 28.5938 25.7281 28.6402C25.6526 28.6867 25.5676 28.7152 25.4795 28.7237C25.2984 28.7377 25.1262 28.8084 24.9869 28.9259L24.7384 28.7589L25.8849 27.8227C25.9328 27.9204 25.9602 28.0271 25.9654 28.1359C25.9707 28.2448 25.9537 28.3536 25.9155 28.4556ZM25.9155 29.1325H25.946C26.0455 29.2269 26.1061 29.3555 26.116 29.4929C26.1206 29.5605 26.1118 29.6284 26.0901 29.6926C26.0684 29.7567 26.0342 29.8158 25.9896 29.8665C25.9349 29.93 25.8681 29.9818 25.7933 30.0188C25.7184 30.0557 25.6369 30.0772 25.5536 30.0819C25.4041 30.0967 25.2548 30.0515 25.1381 29.956C25.0214 29.8606 24.9467 29.7226 24.9302 29.572C24.9359 29.4185 25.0013 29.2734 25.1123 29.1682C25.2232 29.0629 25.3708 29.0059 25.5231 29.0094C25.5724 29.0045 25.6221 29.0045 25.6713 29.0094C25.7478 29.0266 25.8194 29.0612 25.8806 29.1105L25.9155 29.1325ZM30.5713 33.796L23.0513 29.8094L24.3897 28.8292L24.4725 28.8864L24.8343 29.1325C24.7442 29.2719 24.6999 29.4365 24.7079 29.6028C24.7279 29.8225 24.8328 30.0255 25.0001 30.1678C25.1673 30.3101 25.3834 30.3803 25.6016 30.3632C25.7194 30.3565 25.8346 30.3258 25.9402 30.2729C26.0459 30.22 26.1398 30.1461 26.2163 30.0555C26.3503 29.8987 26.4176 29.695 26.4037 29.4885C26.3945 29.3557 26.3526 29.2273 26.2817 29.1149C26.6522 28.9787 26.8658 28.482 26.9617 28.1875C27.0489 28.2538 27.1423 28.3112 27.2407 28.3589C27.1176 28.4542 27.0197 28.5787 26.9558 28.7213C26.8919 28.864 26.864 29.0203 26.8745 29.1764C26.8801 29.2977 26.9094 29.4167 26.9606 29.5265C27.0119 29.6363 27.0841 29.7349 27.1732 29.8166C27.2623 29.8982 27.3665 29.9614 27.4798 30.0024C27.5931 30.0434 27.7134 30.0614 27.8336 30.0555C28.0315 30.0381 28.2188 29.958 28.3688 29.8268C28.5189 29.6955 28.6239 29.5198 28.6688 29.3247C28.7138 29.1297 28.6965 28.9253 28.6193 28.7407C28.5421 28.5562 28.409 28.401 28.239 28.2974C28.4968 28.1378 28.697 27.899 28.8101 27.6161L28.5703 27.5282C28.5058 27.6985 28.3968 27.8481 28.2548 27.9611C28.1128 28.0741 27.9432 28.1462 27.7639 28.1699H27.6854C27.6057 28.1783 27.5253 28.1783 27.4456 28.1699C27.2811 28.1043 27.1325 28.0039 27.0097 27.8754L26.8484 27.5897L26.7743 27.915C26.7743 27.915 26.5301 28.9127 26.0506 28.882C26.0158 28.8588 25.9794 28.8383 25.9416 28.8204C26.0197 28.7593 26.0849 28.6831 26.1334 28.5963C26.2014 28.435 26.2324 28.2603 26.2241 28.0853C26.2158 27.9102 26.1684 27.7393 26.0855 27.5853L29.1371 25.3569L30.5713 33.796ZM27.6854 28.4512H27.7944C27.9631 28.4612 28.1218 28.535 28.2389 28.6578C28.356 28.7806 28.4229 28.9434 28.4262 29.1137C28.4295 29.284 28.369 29.4494 28.2567 29.5767C28.1445 29.704 27.9887 29.784 27.8205 29.8006C27.7339 29.8059 27.6471 29.7938 27.5652 29.765C27.4833 29.7362 27.4079 29.6912 27.3434 29.6327C27.2788 29.5742 27.2265 29.5034 27.1894 29.4243C27.1524 29.3452 27.1313 29.2594 27.1274 29.1721C27.1131 29.0031 27.1627 28.835 27.2662 28.7013C27.3696 28.5676 27.5194 28.4783 27.6854 28.4512ZM35.5323 18.3418L29.4291 24.3196L28.008 19.9242C28.4938 20.1871 29.011 20.3865 29.5469 20.5175C29.5469 20.5175 29.512 20.5923 28.7927 20.5175C28.7927 20.5175 28.6837 20.9922 30.2095 20.7153C30.8609 20.4572 31.5725 20.3946 32.2584 20.5351C32.2584 20.5351 32.8556 20.7505 32.3064 20.2494C32.3064 20.2494 33.7406 19.4627 34.2245 19.5725L34.4817 19.2341L33.5749 19.3396C33.4943 19.1457 33.379 18.9684 33.2349 18.8165C33.2349 18.8165 32.9254 18.9088 32.8687 18.4825L32.4938 18.4341L31.3081 17.8671C31.3081 17.8671 31.1947 17.7616 30.2967 17.6474L29.0935 17.6122C29.0935 17.6122 28.688 17.7133 28.6575 18.4034C28.6575 18.4034 28.7316 19.5901 29.1371 19.5242C29.1371 19.5242 29.0499 19.7527 29.1371 19.8538C28.7266 19.8378 28.3228 19.7439 27.9469 19.5769L27.1535 17.1155L35.5323 18.3418ZM31.9053 18.9308L30.5234 18.2803C30.5725 18.1916 30.6448 18.1181 30.7324 18.0677C30.82 18.0174 30.9195 17.9921 31.0203 17.9946L32.4284 18.6847C32.4284 18.6847 32.6072 18.9 31.9227 18.9396L31.9053 18.9308ZM32.629 19.0275L32.8731 19.5198L32.3238 19.6297L32.193 19.1901L32.629 19.0275ZM31.8922 19.8011L29.3899 19.8978C29.3899 19.8978 29.0848 19.4846 29.8651 19.3176L31.853 19.2561L31.8922 19.8011ZM31.4955 18.9572L30.0874 19.1022C30.0702 19.0402 30.0654 18.9753 30.0733 18.9114C30.0811 18.8474 30.1014 18.7857 30.133 18.7297C30.1646 18.6737 30.2069 18.6246 30.2574 18.5852C30.308 18.5458 30.3658 18.5168 30.4275 18.5001L31.4955 18.9572ZM29.8128 19.0363L29.4379 19.133C28.9278 19.7132 28.8755 18.2539 28.8755 18.2539C29.0237 17.8144 29.2286 17.9067 29.2286 17.9067H30.471C29.6733 18.6979 29.8302 19.0451 29.8302 19.0451L29.8128 19.0363Z" fill="white"/>
<path d="M22.5141 6.54932C19.3722 6.55019 16.3012 7.4904 13.6893 9.25107C11.0774 11.0117 9.04193 13.5138 7.84038 16.4408C6.63882 19.3678 6.32511 22.5883 6.93891 25.6951C7.55271 28.8019 9.06645 31.6554 11.2887 33.8948C13.511 36.1341 16.3419 37.6588 19.4236 38.276C22.5053 38.8931 25.6993 38.5751 28.6017 37.362C31.5041 36.1489 33.9846 34.0953 35.7294 31.4609C37.4742 28.8265 38.405 25.7295 38.4042 22.5617C38.4036 20.4583 37.9921 18.3757 37.1933 16.4327C36.3944 14.4897 35.2238 12.7243 33.7483 11.2374C32.2728 9.75053 30.5212 8.57122 28.5937 7.76684C26.6661 6.96245 24.6003 6.54874 22.5141 6.54932ZM22.5141 37.884C19.5087 37.8831 16.5709 36.9838 14.0724 35.2996C11.5738 33.6154 9.6267 31.2221 8.47715 28.4222C7.3276 25.6224 7.02727 22.5417 7.61414 19.5698C8.20101 16.5978 9.64872 13.8681 11.7742 11.7256C13.8997 9.58322 16.6075 8.12434 19.5553 7.53349C22.5031 6.94263 25.5585 7.24632 28.3351 8.40615C31.1117 9.56599 33.4849 11.5299 35.1546 14.0495C36.8242 16.5692 37.7154 19.5314 37.7154 22.5617C37.7108 26.624 36.1082 30.5186 33.2592 33.3911C30.4103 36.2635 26.5475 37.8794 22.5185 37.884H22.5141Z" fill="white"/>
<path d="M5.1478 29.757C4.76221 29.7552 4.38478 29.8689 4.06327 30.0835C3.74177 30.2981 3.49065 30.6041 3.3417 30.9627C3.19274 31.3213 3.15265 31.7164 3.2265 32.098C3.30035 32.4796 3.48482 32.8305 3.75656 33.1063C4.02829 33.3821 4.37508 33.5705 4.75303 33.6475C5.13098 33.7245 5.5231 33.6867 5.87975 33.539C6.23641 33.3912 6.54156 33.1401 6.75659 32.8174C6.97163 32.4947 7.08687 32.1149 7.08774 31.7261C7.08888 31.4683 7.03958 31.2128 6.94266 30.9742C6.84574 30.7357 6.70309 30.5187 6.52289 30.3358C6.3427 30.1529 6.12849 30.0076 5.89253 29.9083C5.65657 29.809 5.4035 29.7576 5.1478 29.757Z" fill="white"/>
<path d="M39.8869 29.6032C39.4998 29.5988 39.12 29.7106 38.796 29.9243C38.472 30.138 38.2183 30.444 38.0671 30.8034C37.9159 31.1628 37.8741 31.5594 37.947 31.9428C38.0199 32.3262 38.2042 32.6791 38.4764 32.9567C38.7487 33.2343 39.0966 33.424 39.476 33.5018C39.8555 33.5796 40.2493 33.5419 40.6074 33.3935C40.9655 33.2452 41.2718 32.9928 41.4874 32.6685C41.703 32.3442 41.8181 31.9627 41.8181 31.5723C41.8193 31.0535 41.6169 30.5553 41.2551 30.1863C40.8933 29.8174 40.4015 29.6078 39.8869 29.6032Z" fill="white"/>
<path d="M15.2263 42.2444L13.4085 41.4576L13.2603 41.9543L14.2019 42.3016C14.7207 42.5081 14.507 42.851 14.507 42.851L14.0711 43.9103L15.2045 44.3498L15.5097 43.3257C15.8018 42.429 15.2263 42.2444 15.2263 42.2444Z" fill="white"/>
<path d="M9.41877 35.1194C8.93051 35.5589 9.09181 35.6512 9.09181 35.6512C9.52956 36.1074 9.99863 36.5318 10.4955 36.9215C10.6394 37.0138 10.5522 37.216 10.5522 37.216C10.3342 37.4709 10.2078 37.2643 10.2078 37.2643L8.83896 36.2666C8.51637 36.0248 8.40302 36.227 8.40302 36.227L6.72901 38.1654C6.63162 38.3422 6.57585 38.5391 6.56602 38.7411C6.5562 38.9431 6.59257 39.1446 6.67234 39.3302L8.85204 41.1367L11.4677 38.0599C11.629 37.8094 11.7946 37.9412 11.7946 37.9412L12.3178 38.3808L10.0683 41.9806L11.1059 42.6223L13.7607 38.495C12.1287 37.6346 10.659 36.4921 9.41877 35.1194ZM9.78932 38.0599L8.31584 39.7565C8.31584 39.7565 7.93657 39.8356 7.73167 39.317C7.73167 39.317 7.5791 39.1192 7.88425 38.7192C7.88425 38.7192 9.03514 37.1457 9.37953 37.2599L9.93754 37.6995C9.93754 37.6995 10.1032 37.7522 9.78932 38.0599Z" fill="white"/>
<path d="M16.0328 39.5853L14.9429 38.9787C14.071 38.7809 13.8792 39.8578 13.8792 39.8578C13.5566 40.7017 13.8792 40.8643 13.8792 40.8643C14.2074 41.1987 14.6183 41.4385 15.0693 41.5588C15.1261 41.6071 15.1926 41.6425 15.2642 41.6624C15.3359 41.6823 15.4109 41.6864 15.4843 41.6743C15.5576 41.6621 15.6274 41.6342 15.689 41.5922C15.7506 41.5503 15.8024 41.4954 15.8409 41.4313L16.1897 40.4819C16.4164 39.6908 16.0328 39.5853 16.0328 39.5853ZM15.3396 40.5347C15.3396 40.5347 15.174 41.0402 14.9734 40.9742C14.8994 40.9591 14.8295 40.9281 14.7684 40.8834C14.7073 40.8387 14.6564 40.7812 14.6192 40.715C14.582 40.6487 14.5594 40.5752 14.5528 40.4993C14.5462 40.4235 14.5559 40.3471 14.5811 40.2754C14.7555 39.7303 14.7424 39.8358 14.7424 39.8358C14.8168 39.7638 14.9142 39.7208 15.0172 39.7143C15.1201 39.7079 15.222 39.7385 15.3047 39.8007C15.3047 39.8007 15.6099 39.8886 15.3396 40.5347Z" fill="white"/>
<path d="M38.7491 38.5258L38.3655 38.6049L35.0741 35.1633L34.3199 35.9941L34.721 36.4819C32.9772 36.6138 33.2911 37.9017 33.2911 37.9017C32.6348 37.7276 31.939 37.7866 31.3207 38.0687C24.5374 42.3893 17.1177 39.8884 17.1177 39.8884V40.4817C17.9896 40.8378 20.2521 41.0312 20.2521 41.0312L20.1431 41.9102L20.0603 41.941C19.681 41.585 18.6522 41.5806 18.6522 41.5806L17.6844 41.3169C16.8474 41.1279 16.9259 41.4839 16.9259 41.4839L16.5161 44.0552C16.5989 45.2683 18.3819 45.1013 18.3819 45.1013V44.7233C18.2207 44.7472 18.0566 44.7055 17.9257 44.6074C17.7949 44.5093 17.7081 44.3629 17.6844 44.2002L17.9504 42.1168C18.1683 41.8971 18.6043 42.2003 18.6043 42.2003L18.4648 43.4354L19.1884 43.3871L19.3236 42.3146C20.0821 42.1212 20.0254 42.9959 20.0254 42.9959L19.6244 45.3298L20.8363 45.4441L21.4117 41.163C21.744 41.2003 22.0797 41.1929 22.41 41.1411L22.676 45.4441L23.8661 45.4178L23.5958 41.1411L24.5461 41.0312L25.2436 44.1827C25.2503 44.3067 25.2814 44.4281 25.3352 44.5398C25.389 44.6515 25.4645 44.7513 25.5571 44.8332C25.6497 44.9151 25.7576 44.9775 25.8744 45.0167C25.9913 45.056 26.1148 45.0713 26.2376 45.0617L27.1574 44.8727C27.698 44.7936 27.3754 44.464 27.3754 44.464H26.9918C26.5558 44.6002 26.4599 43.9145 26.4599 43.9145L25.7057 40.8378C26.2664 40.7666 26.8185 40.6385 27.3536 40.4554L28.5873 43.875C28.8576 44.0991 29.3197 43.664 29.3197 43.664C30.4793 43.7387 30.6275 41.3652 30.6275 41.3652L31.7304 43.3915L32.7026 42.7937L31.2945 39.7521C31.0166 39.8249 30.7465 39.925 30.488 40.051C30.3666 40.0948 30.2554 40.1635 30.1616 40.2527C30.0678 40.342 29.9934 40.4499 29.9431 40.5697C30.1087 42.1036 29.5071 42.7102 29.5071 42.7102L28.5088 40.1301C29.1322 39.8312 29.8167 39.4752 31.5604 38.706C33.3042 37.9368 33.6355 39.2862 33.6355 39.2862C33.7968 40.2136 33.6355 39.9719 33.0426 39.9455C32.4497 39.9191 32.7462 40.2444 32.7462 40.2444C34.66 41.8619 34.7428 39.862 34.7428 39.862C36.6609 40.1125 35.8457 38.1346 35.4752 37.972C35.1046 37.8094 35.2877 38.328 35.2877 38.328C35.1744 39.0708 34.5859 38.6313 34.5859 38.6313C34.3902 38.4307 34.2163 38.2097 34.0671 37.972C33.8796 37.6467 34.0671 37.0621 34.7733 37.0929C35.4795 37.1237 35.5842 37.2907 35.5842 37.2907C35.5842 37.2907 36.6915 38.5522 37.3279 39.2071C37.9644 39.862 38.2521 39.317 38.2521 39.317L38.6881 38.9346C39.0935 38.6796 38.7491 38.5258 38.7491 38.5258Z" fill="white"/>
<path d="M2.46608 23.8321L4.20984 23.8804C4.21907 24.647 4.3395 25.4082 4.56732 26.1396C5.07081 26.2048 5.58244 26.1335 6.04951 25.933C6.12985 25.8905 6.20101 25.8324 6.25885 25.7619C6.31668 25.6914 6.36005 25.6101 6.38641 25.5225C6.41278 25.435 6.42163 25.3431 6.41244 25.2521C6.40324 25.1611 6.3762 25.0728 6.33288 24.9924C6.03644 24.3419 6.14542 22.6321 6.14542 22.6321L5.54382 22.5838L5.6005 21.5377H5.16455L5.19943 23.8364L5.63537 23.8892C5.71051 24.21 5.71051 24.5441 5.63537 24.865C5.4008 24.8963 5.16243 24.8814 4.93351 24.821C4.93351 24.821 4.65886 23.164 4.794 22.6893L0.604614 22.6453L0.914132 18.6411L1.61164 18.6763L1.37623 21.041L4.13573 21.3047C4.13573 21.3047 4.8594 21.4322 4.86811 20.1839C4.91887 19.4822 5.0312 18.7865 5.20379 18.1049L1.24545 17.3049C1.33695 16.741 1.48296 16.1875 1.68139 15.6522L5.54818 17.072L5.91001 15.8237L2.06502 14.4391C2.06502 14.4391 3.37284 11.2657 4.70682 9.6042L5.20379 10.013C4.48985 11.0097 3.87096 12.0722 3.3554 13.1864L5.37381 14.3512C5.55384 14.4776 5.77319 14.5338 5.99122 14.5096C6.20925 14.4853 6.41117 14.3822 6.55956 14.2194L7.39657 12.9007L6.81677 12.5491L6.53777 12.9886C6.53777 12.9886 6.36339 13.4589 5.85334 13.0282L4.54552 12.3469L4.98146 11.6656L5.99284 12.2195L6.42878 11.5645L5.4392 10.8701L5.82282 10.3998L8.05048 11.8722L8.83082 10.9887L5.48279 8.61963C5.79112 8.18164 6.14799 7.78053 6.54649 7.42409L9.3583 10.2459L10.3174 9.36685L6.8996 5.85054C6.8996 5.85054 6.14978 5.14288 5.22995 6.09229L2.70585 9.1295C2.70585 9.1295 2.92818 9.71848 3.32052 9.40641C3.32052 9.40641 5.06429 7.07685 5.50023 6.72522C5.50023 6.72522 6.21081 6.58457 5.98848 7.13839C3.93879 9.39212 2.35621 12.0359 1.33362 14.9147C0.311028 17.7934 -0.130981 20.8491 0.033532 23.9024L0.608974 23.9639C0.608974 23.9639 -0.201876 24.843 0.569739 26.6451C0.569739 26.6451 2.36146 26.4737 2.93254 26.399C3.00854 25.5784 2.78537 24.758 2.30478 24.0914C2.30478 24.0914 2.24375 23.8452 2.46608 23.8321ZM2.26119 18.9004L4.25344 19.2081L4.22728 19.5202C4.14009 20.1707 3.84801 20.0564 3.84801 20.0564L2.1522 19.8059L2.26119 18.9004ZM1.3152 25.2562H0.879257C0.856979 25.0413 0.878345 24.824 0.942052 24.6177C1.00576 24.4114 1.11047 24.2204 1.24981 24.0562C1.54189 23.7661 1.71626 23.9903 1.71626 23.9903L2.12169 24.9485C2.12169 24.9485 2.40941 25.3529 1.3152 25.2562Z" fill="white"/>
<path d="M11.2905 3.63056L13.0866 2.6372L13.2915 2.94927C13.5269 3.26574 13.2915 3.31848 13.2915 3.31848L11.8354 4.04372C11.2818 4.27668 11.3428 4.58435 11.3428 4.58435L12.267 6.62821C12.3757 6.80212 12.5394 6.93402 12.7316 7.00261C12.9238 7.07119 13.1333 7.07246 13.3263 7.00621C13.9135 6.669 14.519 6.36525 15.1399 6.09637C15.8417 6.01285 15.7589 5.65683 15.7589 5.65683L14.3944 2.09217C15.0867 1.81785 15.7959 1.58881 16.5174 1.40649L15.894 2.16689C16.33 2.22403 16.7092 4.32942 16.7092 4.32942C16.7499 4.40057 16.7699 4.48177 16.7671 4.56382C16.7643 4.64587 16.7388 4.72549 16.6934 4.79366C16.648 4.86183 16.5846 4.91583 16.5104 4.94953C16.4361 4.98322 16.354 4.99528 16.2733 4.98433C16.2094 5.07607 16.1784 5.18707 16.1855 5.29897C16.1927 5.41087 16.2375 5.51696 16.3125 5.59969L17.2934 5.32717C18.2656 5.12938 17.8601 4.09647 17.8601 4.09647L17.3588 2.07459C17.0624 2.07459 17.1234 1.89878 17.1234 1.89878C17.943 0.738394 18.6492 0.879046 18.6492 0.879046L19.1897 4.83489L20.4496 4.66347L19.7783 0.158203C15.2314 0.474671 10.8022 3.23497 10.8022 3.23497C11.1118 3.92065 11.2905 3.63056 11.2905 3.63056ZM14.4554 5.65243C14.4554 5.65243 14.4293 5.83264 14.1241 5.94253C14.1241 5.94253 13.5138 6.46558 13.2915 5.80627L12.7771 4.48766C12.7771 4.48766 12.6506 4.37338 12.9602 4.19756L13.662 3.8723L14.4554 5.65243Z" fill="white"/>
<path d="M22.0397 2.24165L23.195 2.40427C24.1497 2.50097 24.0887 2.25044 24.0887 2.25044L24.1758 0.804355C24.2717 0.22856 23.5481 0.0351631 23.5481 0.0351631L21.6561 0L21.5776 1.45927C21.6125 2.14934 22.0397 2.24165 22.0397 2.24165ZM22.4582 1.31862L22.5018 0.553818H22.9988C23.3214 0.593377 23.2996 0.852704 23.2996 0.852704L23.2342 1.73178H22.759C22.3841 1.7142 22.4582 1.31862 22.4582 1.31862Z" fill="white"/>
<path d="M22.9292 4.5272L23.801 4.64587L23.8882 3.58658C23.9711 2.85695 23.0861 2.86135 23.0861 2.86135L21.569 2.76904L21.5298 3.31407L22.9684 3.38L22.9292 4.5272Z" fill="white"/>
<path d="M26.3115 5.04584C26.8634 5.0966 27.4021 5.2454 27.9027 5.48538C28.1381 5.63042 28.2732 5.57328 28.2732 5.57328C28.2774 5.47702 28.2905 5.38137 28.3125 5.28758L28.9315 2.9888L29.7554 3.23494C30.0562 3.41955 29.8906 3.56459 29.8906 3.56459L29.738 4.15357C29.6639 4.56674 29.0797 4.21071 29.0797 4.21071L28.9271 4.89639L29.4677 5.07221C30.6491 5.31396 30.5968 4.75574 30.9063 4.11402C31.2158 3.47229 31.1504 3.07671 30.5663 2.84815C29.9821 2.61959 29.071 2.32949 29.071 2.32949L29.2454 1.73172C29.8775 1.7537 31.5733 2.54486 31.5733 2.54486L31.7346 2.10533C29.6508 0.940549 26.002 0.325195 26.002 0.325195L25.9453 0.879014C26.6738 0.966039 27.3941 1.11304 28.0989 1.31855L27.9986 1.92511C27.2627 1.71983 26.5121 1.57287 25.7535 1.48558L25.3175 3.54701C25.2789 3.71165 25.2743 3.88257 25.304 4.04909C25.3338 4.21561 25.3973 4.37414 25.4906 4.5148C25.5839 4.65546 25.7049 4.77521 25.8462 4.86658C25.9874 4.95795 26.1458 5.01897 26.3115 5.04584ZM26.7474 2.46575L27.7109 2.52289L27.2749 4.49202C27.2749 4.49202 26.5687 4.69421 26.5033 4.13599L26.7474 2.46575Z" fill="white"/>
<path d="M38.6103 7.57324L38.4577 7.69192C38.3388 7.55461 38.2683 7.38153 38.2572 7.19963C38.2572 7.19963 38.2572 7.17766 38.2572 7.16887C38.2484 7.07237 38.2484 6.97527 38.2572 6.87877L37.6338 6.092L37.564 5.99969L37.3199 5.69202L37.2676 5.73158L37.006 5.94695L35.3189 7.26996L36.1908 8.35122L37.0104 8.61495L37.0932 8.7556L35.4889 10.0347L35.2666 10.2149C35.5674 10.5313 35.8595 10.861 36.1385 11.195L39.456 8.55781L39.7176 8.34683C39.4429 8.01278 39.1596 7.68313 38.8457 7.36666L38.6103 7.57324ZM37.5945 8.32046C36.7706 8.20618 36.5657 7.84136 36.5657 7.84136L37.6948 6.94031C37.9304 7.2115 38.0726 7.55226 38.1002 7.91169L37.5945 8.32046Z" fill="white"/>
<path d="M36.3954 5.65258L36.4826 5.56907L36.7224 5.33611C36.8837 5.00207 37.3109 5.46358 37.3109 5.46358L38.6928 6.94043L39.0547 6.5888L37.2717 4.67681C36.3998 3.85487 35.9246 4.48781 35.9246 4.48781L35.7938 4.61527L35.5497 4.83944L32.3848 7.77995C32.7117 7.99972 33.0256 8.21949 33.3351 8.47881L36.3954 5.65258Z" fill="white"/>
<path d="M39.2415 11.5556L39.7952 12.5226L40.0219 12.3907C40.0219 12.3907 39.6165 11.8853 39.9957 11.6303L41.1728 10.9534L41.321 11.2172L41.6131 11.727L38.3174 13.6258L37.7201 12.5753C37.6888 12.5127 37.6804 12.4409 37.6964 12.3726C37.7123 12.3043 37.7516 12.2438 37.8073 12.2017L38.4787 11.8149L37.8422 10.7029L37.3496 10.9886C36.7087 11.3622 37.088 12.3072 37.088 12.3072L38.5658 14.8961L39.1631 14.5445L42.1754 12.7863L42.4762 12.6105L42.2931 12.2061V12.1754L42.219 12.0391L41.5956 10.9534L41.4213 10.6502L41.164 10.2106C41.1271 10.1526 41.0816 10.1007 41.0289 10.0568H41.0027C40.9389 10.0153 40.867 9.98793 40.7918 9.97656C40.7167 9.9652 40.64 9.97007 40.5668 9.99085C40.5409 9.99978 40.516 10.0116 40.4927 10.026L39.4203 10.6502C39.4203 10.6502 38.8928 10.8875 39.2415 11.5556Z" fill="white"/>
<path d="M44.8781 20.566H44.7473C44.7473 20.5044 44.7473 20.4473 44.7473 20.3901C44.7473 20.333 44.7473 20.2715 44.7473 20.2143C44.7168 19.9418 44.6819 19.6781 44.6427 19.41L44.6034 19.1243L44.5642 18.8869C44.5642 18.8518 44.5642 18.8122 44.5642 18.777C44.5462 18.6411 44.5215 18.5061 44.4901 18.3727C44.4881 18.3405 44.4881 18.3082 44.4901 18.276L44.3724 17.7353C44.3419 17.6035 44.3157 17.4716 44.2852 17.3397C44.2832 17.3134 44.2832 17.287 44.2852 17.2606C44.2503 17.1244 44.2154 16.9881 44.1762 16.8519C44.137 16.7156 44.0847 16.5046 44.0323 16.3332C43.98 16.1618 43.9408 16.0123 43.8885 15.8541C43.8362 15.6959 43.8144 15.6211 43.7751 15.5069C43.6182 15.0322 43.4525 14.5619 43.2695 14.1047L42.7768 14.2498C43.198 15.2881 43.5434 16.3561 43.81 17.4452L43.3479 17.5507L42.415 14.3553L39.7383 15.1508C39.7383 15.1508 39.2326 15.3267 39.3896 16.0299L39.6904 17.0584L39.9476 16.9837C39.9476 16.9837 39.6773 16.4211 40.1089 16.2629L42.2929 15.5596L42.4717 16.1794L41.0549 16.6189L41.36 17.665L42.7289 17.2474L42.864 17.687L39.7645 18.4825C39.8735 18.9221 39.9563 19.3616 40.0261 19.8012C40.0261 19.8012 40.0261 19.8012 40.0261 19.8275L44.0367 18.9968C44.1239 19.5155 44.1936 20.0385 44.2416 20.566L40.1481 20.6539C40.1481 20.6539 40.2222 21.3835 40.2397 21.7527L44.3157 21.7307C44.3157 22.0076 44.3157 22.2801 44.3157 22.5571C44.3157 22.6186 44.3157 22.6801 44.3157 22.7461C44.1573 22.9404 43.9342 23.07 43.688 23.1109L41.8744 23.0186C41.8744 23.0186 41.3862 22.9439 41.4123 22.7153L41.4429 22.1263L41.0287 22.1043L40.9851 23.1724C40.9662 23.3153 40.9771 23.4605 41.0169 23.599C41.0568 23.7374 41.1249 23.8659 41.2167 23.9763C41.3086 24.0867 41.4223 24.1766 41.5506 24.2403C41.6788 24.3039 41.8188 24.3399 41.9616 24.346H42.2058C42.189 24.5273 42.1243 24.7008 42.0185 24.8485C41.9127 24.9961 41.7697 25.1125 41.6042 25.1855L40.1132 25.0229V25.0536C40.0609 25.4316 39.9999 25.8052 39.9214 26.1701C39.9162 26.2013 39.909 26.2321 39.8996 26.2624L42.2101 26.5217L43.9539 26.7239C43.9539 26.8118 43.9234 26.8997 43.9059 26.9876H44.0716L44.416 27.0272C44.4944 26.636 44.5598 26.236 44.6165 25.836C44.6165 25.7789 44.6165 25.7217 44.6427 25.6646C44.6688 25.6075 44.6427 25.5064 44.6427 25.5064C44.6427 25.5064 44.6427 25.4316 44.6427 25.3965C44.6775 25.1108 44.7081 24.8295 44.7342 24.5438C44.7342 24.4866 44.7342 24.4295 44.7342 24.3724V24.2097C44.7342 24.2097 44.7342 24.2097 44.7342 24.1746C44.7342 24.1394 44.7342 24.1482 44.7342 24.135V24.0339V24.1746V23.946C44.7342 23.8273 44.7342 23.713 44.7342 23.5988C44.7342 23.2603 44.7604 22.9263 44.7342 22.5966V22.4911V22.3681C44.7342 22.3681 44.7342 21.9285 44.7342 21.7439L44.804 21.7131C45.1527 21.6164 45.1832 22.2318 45.1832 22.2318L45.1135 24.2581L45.6148 24.2801L45.702 21.6428C45.7805 20.4473 44.8781 20.566 44.8781 20.566ZM44.1457 25.4932L42.7856 25.3437L42.5632 25.313C42.7227 25.036 42.7999 24.7187 42.7856 24.3987L43.3828 24.4295C43.3828 24.4295 43.64 24.5086 44.2983 23.8757C44.2634 24.4075 44.2111 24.9438 44.1457 25.4932Z" fill="white"/>
</svg>
